<svg xmlns="http://www.w3.org/2000/svg" viewBox="0 0 247.3 233.61"><defs><style>.cls-1{fill:#247e73;}.cls-2{fill:#359e90;}.cls-3{fill:#43bead;}.cls-4{fill:#d4d5d7;}.cls-5{fill:#fff;}</style></defs><title>Asset 2</title><g id="Layer_2" data-name="Layer 2"><g id="Layer_1-2" data-name="Layer 1"><g id="_Group_" data-name="&lt;Group&gt;"><g id="_Group_2" data-name="&lt;Group&gt;"><path id="_Path_" data-name="&lt;Path&gt;" class="cls-1" d="M12.19,154.55A114.09,114.09,0,0,0,18.74,170a182.69,182.69,0,0,0,38-6.72l.14,0c-2.76,0-5.5-.09-8.2-.23A115.48,115.48,0,0,1,12.19,154.55Z"/><path id="_Path_2" data-name="&lt;Path&gt;" class="cls-2" d="M157.93,83.77c-6-10.5-30.87,2.81-45.54,7.16-34.81,9.9-70.87,20.71-106.45,24.3a118.37,118.37,0,0,0,.48,12.16,116.4,116.4,0,0,0,5.77,27.16A115.48,115.48,0,0,0,48.67,163c2.7.14,5.44.22,8.2.23,26.37-7.44,49.06-22.53,73.91-35.82C147,117.9,165.27,98.16,157.93,83.77Z"/><path id="_Path_3" data-name="&lt;Path&gt;" class="cls-3" d="M172.87,93.45a94.88,94.88,0,0,0-4.17-60.74,115.52,115.52,0,0,1-18.65,8.6c-39.41,14.83-78.87,7.54-118.25,2.2A116.42,116.42,0,0,0,5.94,115.23c35.58-3.59,71.64-14.4,106.45-24.3,14.67-4.35,39.57-17.66,45.54-7.16,7.34,14.39-11,34.13-27.15,43.64-24.85,13.29-47.54,28.38-73.91,35.82C104.69,163.49,160.47,144.89,172.87,93.45Z"/><path id="_Path_4" data-name="&lt;Path&gt;" class="cls-2" d="M188.37,20.2c-6.47,4.43-13,8.72-19.67,12.51a94.88,94.88,0,0,1,4.17,60.74c-12.4,51.44-68.18,70-116,69.78l-.14,0a182.69,182.69,0,0,1-38,6.72A115.76,115.76,0,0,0,29.8,187.56c2.2,2.88,4.53,5.66,7,8.31,45.43-4.78,90.37-12.49,129.77-39.58,27.43-18.57,48.25-43.56,56.4-75.43a105.31,105.31,0,0,0,2.32-20.06A117.07,117.07,0,0,0,188.37,20.2Z"/><path id="_Path_5" data-name="&lt;Path&gt;" class="cls-2" d="M148.28,2.81A115.77,115.77,0,0,0,127.61.1a118.1,118.1,0,0,0-15.47.38,116.46,116.46,0,0,0-80.34,43c39.38,5.34,78.84,12.63,118.25-2.2a115.52,115.52,0,0,0,18.65-8.6,96.42,96.42,0,0,0-13.49-23A36.22,36.22,0,0,0,148.28,2.81Z"/><path id="_Path_6" data-name="&lt;Path&gt;" class="cls-1" d="M148.28,2.81a36.22,36.22,0,0,1,6.93,6.9,96.42,96.42,0,0,1,13.49,23c6.72-3.79,13.2-8.08,19.67-12.51A116.58,116.58,0,0,0,148.28,2.81Z"/><path id="_Path_7" data-name="&lt;Path&gt;" class="cls-1" d="M225.26,60.8a105.31,105.31,0,0,1-2.32,20.06c-8.15,31.87-29,56.86-56.4,75.43-39.4,27.09-84.34,34.8-129.77,39.58A116.82,116.82,0,0,0,225.26,60.8Z"/></g><path id="_Path_8" data-name="&lt;Path&gt;" class="cls-4" d="M218.61,50.09c47.72-17.47,43.8,45.57-72.66,75.48,3.94-15.53,17.38-18.3,20.36-16.67,2.2-18.18,15.56-20.43,25.44-12.08-1-10.3,4.59-12.76,7.89-13.12-2.57-10.58,2.09-21,18-13.91-3.13-10.07,2.85-14.14,2.85-14.14Z"/><path id="_Path_9" data-name="&lt;Path&gt;" class="cls-4" d="M148.27,173.7s-9.75-9.6-17.33,3.06c-8.67-9.33-18.67-1.33-20,1.34-11-11.4-25.24-7.14-22,9.09-11.33-9.76-14.8,3.37-14.8,3.37-11.27-14.9-19.6-18.1-31.91-7.8,0,0-6.17-5.48-10.48,0a170.56,170.56,0,0,0,49.47,25C137.71,186,148.27,173.7,148.27,173.7Z"/><path id="_Path_10" data-name="&lt;Path&gt;" class="cls-5" d="M29.52,187.19c-4.1-3.67-7.48-9.95-9.3-13.82l-1.44-1.27,1.44,1.27c-.43-.91-.78-1.7-1-2.27-50,23.11,7.45,57.64,61.17,37l.86-.34a170.56,170.56,0,0,1-49.47-25A14.21,14.21,0,0,0,29.52,187.19Z"/></g></g></g></svg>