<svg xmlns="http://www.w3.org/2000/svg" viewBox="0 0 217.33 217.33"><defs><style>.cls-1{fill:#53c9f4;}.cls-2{fill:#6acef5;}.cls-2,.cls-3{fill-rule:evenodd;}.cls-3{fill:#0070b8;}</style></defs><title>Asset 5</title><g id="Layer_2" data-name="Layer 2"><g id="Layer_1-2" data-name="Layer 1"><circle class="cls-1" cx="108.66" cy="108.66" r="108.66" transform="translate(-45.01 108.66) rotate(-45)"/><path class="cls-2" d="M41.13,23.54A108.66,108.66,0,1,1,176.19,193.79l-.66.52L40.48,24.07Z"/><path class="cls-3" d="M83.62,52.53c1.48,8,3.18,9.68,11.92,19.25,5.49,6,20.51,7.43,20.52,7.44,3.23,1.72-.31.37,2.51-.94,11.12-5.18,12.81-5.08,13-12,.33-13-6.51-2.23,1.62-13l2.33-4.68c20.19,4.84,9.57-5.94,29.53,5.32,6.79-2.16,9.25-2.31,15.27-2.93,1.53-4.69,2.8-5.74,1.31-10.94-1.67-5.88-5.36-6.57-4.13-10.59C161.24,10.55,143.14,3.61,122.68,1.1c-20-2.46-38.87.73-60.65,17.07l3.64,4.32c-7.79,14.2.55,16.11.34,25.85l3,1.16c5.62,1.81-2.82-2.82,4.64,1.39l-2.34,6.79,8.51,4.1c1.66-2.45,1.47-1.84,2.53-4.54.16-.43.58-1.88.7-2.28Z"/><path class="cls-3" d="M161.32,45.69c3.59,0,5.14,3.65,7.61,7l-2.61,2.43c5.27,8.52,14.82,15.78,14.42,24.41l.78,12.85c1.74,8.53-1.53,5.06-6.56,4.39,6,17.13-4.22,7.7-17.93,25.62-5.41,7.07-2.53,2.93-9.47,5.67,14.12,19.69,12.79,9.48-3.36,30.24-2.62,6.59-2.42,12-5.53,18.34-10.41-2.42-12.56-8.71-21-11.81-3.27-4.66-2.85-12.69-1.93-16.6,1.48-6.27,2.62-5,5-8l1.19-1.63c2.4-4.89-.59-1.34,1.2-6L124,131c.08-.14,2.64-3,2.72-3.08,7.8-8.22,15.91-7.67,25.67-6l5.42-16.34c5.64-.11,2.63,1.19,8.51.61-.95-5.76-1.38-10.59-8.59-11.15-7.72-.6-7,4.38-11.5,9.78-4.11-6.14-3.2-10-11.28-18.22-6.72-6.87-11.77-2.23-14-9.35-1.88-5.91,2.43-12.47,9.66-13.3,11-1.26,4.25,9.68,15.36.32-4.77-4.75-2.26-2.69-6.87-4.83l-6.51-1.69c-4.55-.59-1.43,4.83-13.91-9.17L125.88,37C151,41.82,138,50,162.06,48.07Z"/><path class="cls-3" d="M89.94,95.92l-2.1,2.85c-8.35,7-20.26-.91-27.71-5.64-12.47-7.92-10.72,13.14-30.55,8.74-11.32,9.51-14.41,9.67-13.54,22.71.36,5.55-1.56,5.82,0,11.45,1.2,4.43,5.34,9.51,8.9,13,4.31.29,10.78,1.76,14.29,0,7.66-3.91,3.67-8.83,14.74-11.74,4,1.2,5.66,4.24,10.76,6.72,11,5.35,11.22,17.81,32.69,23.62,8.67-6.31,7.83-7.57,5.37-20.53l-.84-3.35c-.11-.38-.3-.76-.43-1.13-3-8.91-.25-3.94-1.21-9.51-1.88-10.88-10.55-5.33-8.38-18.64C93,107.48,95.62,102.74,89.94,95.92Z"/></g></g></svg>