<svg xmlns="http://www.w3.org/2000/svg" viewBox="0 0 135.38 255.61"><defs><style>.cls-1{fill:#262b67;}.cls-2{fill:#00656d;}.cls-3{fill:#74bada;}.cls-4{fill:#00505b;}.cls-5{fill:#084355;}.cls-6{fill:#f78c1f;}.cls-7{fill:#f47920;}.cls-8{fill:#002c35;}.cls-9{fill:#42bfad;}.cls-10{fill:#359d90;}.cls-11{fill:#fff;}.cls-12{fill:#004049;}.cls-13{fill:#003444;}.cls-14{fill:#032230;}.cls-15{fill:#002b3a;}</style></defs><title>Asset 1</title><g id="Layer_2" data-name="Layer 2"><g id="Layer_1-2" data-name="Layer 1"><polygon class="cls-1" points="57.34 233.13 49.62 248.18 49.37 234.27 57.34 233.13"/><path class="cls-2" d="M15.59,217.43q-.06,3.94-.06,8s41.4,19.55,85.1,13.8c0,0,.52-1.27,1.42-3.62C79.15,214.91,45.7,210.89,15.59,217.43Z"/><path class="cls-3" d="M54.58,204.06q-4.39,5.26-8.75,10.57A108.21,108.21,0,0,1,59.55,216q3.93-4.91,8-9.73Q61.13,204.85,54.58,204.06Z"/><path class="cls-4" d="M15.87,204.94q-.19,6.12-.28,12.49a122.88,122.88,0,0,1,30.24-2.8q4.35-5.31,8.75-10.57A138.2,138.2,0,0,0,15.87,204.94Z"/><path class="cls-4" d="M78,209q-5.14-1.57-10.42-2.74-4.06,4.83-8,9.73a93.73,93.73,0,0,1,10.68,2.39C72.48,215.11,74.36,211.36,78,209Z"/><path class="cls-4" d="M86.08,211.75a56.81,56.81,0,0,0-9.25,8.79,82.44,82.44,0,0,1,10.66,4.83q1.67-5.82,3.4-11.68C89.3,213,87.7,212.36,86.08,211.75Z"/><path class="cls-5" d="M87.49,225.37a74.45,74.45,0,0,1,14.56,10.23c1.14-3,2.9-7.63,5-13.67a127.51,127.51,0,0,0-16.18-8.24Q89.17,219.56,87.49,225.37Z"/><path class="cls-3" d="M86.08,211.75c-2.67-1-5.38-1.94-8.11-2.77-3.61,2.38-5.49,6.13-7.74,9.38,2.24.63,4.43,1.38,6.6,2.18A56.81,56.81,0,0,1,86.08,211.75Z"/><path class="cls-6" d="M113,28A73.87,73.87,0,0,1,76.35,18c-21.88,22-51.71,68.67-59.1,162.3,27.47-3.7,56.29-1.79,81,8.73C114.27,135.21,128.89,80,113,28Z"/><path class="cls-7" d="M124.68,26.92A59.09,59.09,0,0,1,113,28c15.9,52,1.28,107.17-14.73,161a106.61,106.61,0,0,1,16.71,8.9C129.57,150.28,147.11,72.74,124.68,26.92Z"/><ellipse class="cls-8" cx="73.8" cy="115.63" rx="35.27" ry="25.69" transform="translate(-57.31 155.93) rotate(-74.54)"/><path class="cls-9" d="M100.63,0S90.05,4.16,76.35,18A73.87,73.87,0,0,0,113,28,145.71,145.71,0,0,0,101.32.44C101.09.29,100.87.14,100.63,0Z"/><path class="cls-10" d="M101.32.44A145.71,145.71,0,0,1,113,28a59.09,59.09,0,0,0,11.69-1.12C119.34,16,111.75,6.92,101.32.44Z"/><path class="cls-9" d="M85.48,184.41c-5.71,7.44-11.86,14.61-17.93,21.83Q72.82,207.41,78,209a11.76,11.76,0,0,1,1.39-.81A11.76,11.76,0,0,0,78,209c2.73.83,5.44,1.76,8.11,2.77l.18-.13-.18.13c1.62.61,3.22,1.27,4.81,1.94,2.42-8.18,4.91-16.41,7.37-24.68A120.69,120.69,0,0,0,85.48,184.41Z"/><path class="cls-10" d="M90.89,213.69a127.51,127.51,0,0,1,16.18,8.24c2.31-6.56,5.05-14.73,7.9-24A106.5,106.5,0,0,0,98.26,189C95.8,197.28,93.31,205.51,90.89,213.69Z"/><path class="cls-11" d="M85.48,184.41c-3.83-1.14-7.73-2.09-11.68-2.88q-9.73,11.13-19.22,22.53,6.56.78,13,2.18C73.62,199,79.77,191.85,85.48,184.41Z"/><path class="cls-9" d="M17.25,180.26q-.93,11.84-1.38,24.68a138.2,138.2,0,0,1,38.71-.88q9.51-11.37,19.22-22.53C55.48,177.84,36.05,177.73,17.25,180.26Z"/><path class="cls-12" d="M70.16,96.61c3.24-7.56,13.57-7,21.49-6.91a14.56,14.56,0,0,0-7.38-5c-11-3.1-23.87,8.39-28.74,25.66a50.19,50.19,0,0,0-1.75,10c5.79-3.16,12.17-5.68,16.38-9.89C73.61,107,67.85,101.21,70.16,96.61Z"/><path class="cls-4" d="M84,108.11c-.83-5.77,5.42-8,12-9.64a24,24,0,0,0-4.31-8.77c-7.92-.1-18.25-.65-21.49,6.91-2.31,4.6,3.45,10.35,0,13.8-4.21,4.21-10.59,6.73-16.38,9.89-.6,8.57,1.27,16.26,5.06,21.3C72.74,135,84.63,126.25,84,108.11Z"/><path class="cls-12" d="M84,108.11c.67,18.14-11.22,26.85-25.12,33.49a14.79,14.79,0,0,0,7.8,5.61c11,3.1,23.87-8.39,28.74-25.66,2.36-8.35,2.4-16.51.58-23.08C89.38,100.12,83.13,102.34,84,108.11Z"/><path class="cls-13" d="M30.74,223.29c-.5,2.82,6.8,6.57,17.41,9.35a74.33,74.33,0,0,1,4.37-12C40.5,219.3,31.27,220.29,30.74,223.29Z"/><path class="cls-14" d="M68.57,223.66c1.07,4.18,2.23,8.36,3.35,12.53,8.07.25,13.67-.87,14.07-3.19C86.49,230.18,79.19,226.43,68.57,223.66Z"/><path class="cls-15" d="M59.5,221.69c-2.4-.42-4.74-.76-7-1a74.33,74.33,0,0,0-4.37,12c2.82.73,5.88,1.4,9.08,2a105.5,105.5,0,0,0,14.69,1.58c-1.12-4.17-2.28-8.35-3.35-12.53C65.75,222.92,62.7,222.25,59.5,221.69Z"/><path class="cls-6" d="M32.49,187.46S8.63,175.39,0,253c0,0,17.54-36.23,28.18-31.63C28.18,221.39,38.24,191.49,32.49,187.46Z"/><path class="cls-6" d="M102.93,200.69s19.27,4.6,0,54.92c0,0,0-23-4.31-27.46C98.62,228.15,98,212.77,102.93,200.69Z"/></g></g></svg>