<svg xmlns="http://www.w3.org/2000/svg" viewBox="0 0 206.08 247.13"><defs><style>.cls-1{fill:#3dafa0;}.cls-2{fill:#43bead;}.cls-3{fill:#fab11b;}.cls-4{fill:#f78d1e;}.cls-5{fill:#f47920;}.cls-6{fill:#2b8a7e;}.cls-7{fill:#359e90;}.cls-8{fill:#002c34;}.cls-9{fill:#004049;}.cls-10{fill:#00505b;}.cls-11{fill:#fff;}.cls-12{fill:#ffc40c;}.cls-13{fill:#fdb515;}.cls-14{fill:#f37321;}.cls-15{fill:#f15d22;}</style></defs><title>Asset 1</title><g id="Layer_2" data-name="Layer 2"><g id="Layer_1-2" data-name="Layer 1"><g id="_Group_" data-name="&lt;Group&gt;"><g id="_Group_2" data-name="&lt;Group&gt;"><path id="_Path_" data-name="&lt;Path&gt;" class="cls-1" d="M82.36,163.05C67.92,150.17,53.11,139,53.11,139l-3.52,8.32c16.5,17.25,35.07,32.53,55.91,43.8,2.18-1.26,3.81-2.28,3.81-2.28S101.5,180.11,82.36,163.05Z"/><path id="_Path_2" data-name="&lt;Path&gt;" class="cls-2" d="M46.44,154.79s-1.89,3.94,2.42,6.81L89,193.79s4.39,3,8.89,1.23a65.08,65.08,0,0,0,7.65-3.91c-20.84-11.27-39.41-26.55-55.91-43.8Z"/><path id="_Path_3" data-name="&lt;Path&gt;" class="cls-3" d="M50.9,163.24l-2-1.64L35.67,184.92s-1.48,1.86.17,6S76,234,76,234s2.62,3.38,5.35,2.28l2.58-1-30-40.38C61.87,184.43,56.92,173.48,50.9,163.24Z"/><path id="_Path_4" data-name="&lt;Path&gt;" class="cls-4" d="M50.9,163.24c6,10.24,11,21.19,3,31.59l30,40.38,4.78-1.92L68,199.17s-1.48-1.31,1.79-4.21l8.7-9.58Z"/><path id="_Path_5" data-name="&lt;Path&gt;" class="cls-4" d="M144.3,93.89l-1-2.42,26.14-5.89s2.21-.87,5.64,1.89,29.65,50.87,29.65,50.87,2.48,3.49.64,5.78l-1.74,2.17-30-40.39C161.42,110.52,152.37,102.62,144.3,93.89Z"/><path id="_Path_6" data-name="&lt;Path&gt;" class="cls-5" d="M144.3,93.89c8.07,8.73,17.12,16.63,29.37,12l30,40.39-3.22,4-26.68-29.67s-.83-1.79-4.55.51l-11.69,5.55Z"/><path id="_Path_7" data-name="&lt;Path&gt;" class="cls-6" d="M120,89.35s6.19,17.59,14.34,35.14C145.09,147.74,152,157.12,152,157.12s2.28-2,4.75-4.39c-6.25-22.69-14.84-44.85-27.59-64.52Z"/><path id="_Path_8" data-name="&lt;Path&gt;" class="cls-7" d="M137.51,87.17l-8.34,1c12.75,19.67,21.34,41.83,27.59,64.52a56.46,56.46,0,0,0,4.39-4.7c3-3.79,1.38-8.87,1.38-8.87l-19.2-47.69C141.83,86.51,137.51,87.17,137.51,87.17Z"/><path id="_Path_9" data-name="&lt;Path&gt;" class="cls-2" d="M.89.33C-2.22,2.64,2.78,37.54,16.63,74.5L35.88,60.21A663.38,663.38,0,0,1,1.2.17,1.79,1.79,0,0,0,.89.33Z"/><path id="_Path_10" data-name="&lt;Path&gt;" class="cls-7" d="M1.2.17a663.38,663.38,0,0,0,34.68,60L68.56,36C38,13.1,6.17-1.78,1.2.17Z"/><path id="_Path_11" data-name="&lt;Path&gt;" class="cls-4" d="M35.88,60.21,16.63,74.5c6.8,17.88,16.74,38.72,27.36,53,21,28.34,45.54,47.17,65.32,61.3L130,173.46A616.94,616.94,0,0,1,35.88,60.21Z"/><path id="_Path_12" data-name="&lt;Path&gt;" class="cls-5" d="M111.59,77.34c-10.38-14-28.27-30-43-41.39L35.88,60.21A616.94,616.94,0,0,0,130,173.46l22-16.34C144.21,134.1,132.63,105.68,111.59,77.34Z"/><path id="_Path_13" data-name="&lt;Path&gt;" class="cls-8" d="M106.06,100.51c15,20.17,18.63,42.83,8.15,50.61s-31.11-2.27-46.09-22.45S49.49,85.84,60,78.06,91.08,80.33,106.06,100.51Z"/></g><path id="_Path_14" data-name="&lt;Path&gt;" class="cls-9" d="M152,157.12l-22,16.34q4.52,4.24,9.12,8.39l16.52-12.26Z"/><path id="_Path_15" data-name="&lt;Path&gt;" class="cls-10" d="M109.31,188.83,121,195.28l18.09-13.43q-4.6-4.14-9.12-8.39Z"/><g id="_Group_3" data-name="&lt;Group&gt;"><path id="_Path_16" data-name="&lt;Path&gt;" class="cls-8" d="M26.62,20.77A15.18,15.18,0,0,0,17.05,26l-.48.61a15.14,15.14,0,0,0,2.8,21.23,15.41,15.41,0,0,0,2,1.32,15.14,15.14,0,1,0,5.21-28.35Z"/><path id="_Path_17" data-name="&lt;Path&gt;" class="cls-10" d="M34.41,39.76a13.8,13.8,0,0,0-.09-8.17A20.72,20.72,0,0,0,26.74,23a12.83,12.83,0,0,0-8,4.4l-.41.51A12.91,12.91,0,0,0,20.72,46a12.7,12.7,0,0,0,1.75,1.13,12.88,12.88,0,0,0,4.58,1.44A12.28,12.28,0,0,0,34.41,39.76Z"/><path id="_Path_18" data-name="&lt;Path&gt;" class="cls-9" d="M26.91,23l-.17,0a20.72,20.72,0,0,1,7.58,8.58,13.8,13.8,0,0,1,.09,8.17,12.28,12.28,0,0,1-7.36,8.84c.35,0,.7.08,1.06.09A12.91,12.91,0,1,0,26.91,23Z"/><path id="_Path_19" data-name="&lt;Path&gt;" class="cls-11" d="M22.86,34.63c.35,2-.59,3.9-2.1,4.17s-3-1.18-3.38-3.22.59-3.9,2.1-4.16S22.5,32.6,22.86,34.63Z"/><path id="_Path_20" data-name="&lt;Path&gt;" class="cls-11" d="M22.4,41.59a1.42,1.42,0,1,1-1.62-1.07A1.37,1.37,0,0,1,22.4,41.59Z"/></g><path id="_Path_21" data-name="&lt;Path&gt;" class="cls-10" d="M61.68,80.32h0c-9.17,6.81-5.22,27.67,8.83,46.59C78,137,86.81,144.49,94.83,148.27a23.48,23.48,0,0,0,5.15-9.35C107.31,112.53,83.3,92.7,61.68,80.32Z"/><path id="_Path_22" data-name="&lt;Path&gt;" class="cls-9" d="M61.68,80.32c21.62,12.38,45.63,32.21,38.3,58.6a23.48,23.48,0,0,1-5.15,9.35c7,3.31,13.41,3.76,17.7.58,9.17-6.81,5.21-27.67-8.84-46.59S70.86,73.54,61.68,80.32Z"/><path id="_Path_23" data-name="&lt;Path&gt;" class="cls-11" d="M66.93,98.33c1.17,4.29.64,8.18-1.19,8.68s-4.26-2.58-5.43-6.88-.63-8.19,1.19-8.68S65.76,94,66.93,98.33Z"/><path id="_Path_24" data-name="&lt;Path&gt;" class="cls-11" d="M68,110.59a2.07,2.07,0,1,1-2.89-.43A2.07,2.07,0,0,1,68,110.59Z"/><path id="_Path_25" data-name="&lt;Path&gt;" class="cls-12" d="M144,188.09l42.78,59S107.52,214.54,144,188.09Z"/><path id="_Path_26" data-name="&lt;Path&gt;" class="cls-13" d="M144,188.09l42.78,59S180.54,161.63,144,188.09Z"/><path id="_Path_27" data-name="&lt;Path&gt;" class="cls-14" d="M144,188.09l25.13,34.68S122.58,203.62,144,188.09Z"/><path id="_Path_28" data-name="&lt;Path&gt;" class="cls-15" d="M144,188.09l25.13,34.68S165.47,172.55,144,188.09Z"/></g></g></g></svg>