<svg xmlns="http://www.w3.org/2000/svg" viewBox="0 0 211.04 305.9"><defs><style>.cls-1{fill:#fdb515;}.cls-2{fill:#f47d20;}.cls-3{fill:#f78d1e;}.cls-4{fill:#e26a1f;}.cls-5{fill:#cf551c;}.cls-6{fill:#00505b;}.cls-7{fill:#43bead;}.cls-8{fill:#39a597;}.cls-9{fill:#2c8c80;}.cls-10{fill:#359e90;}.cls-11{fill:#004049;}.cls-12{fill:#fff;}.cls-13{fill:#ffc40c;}.cls-14{fill:#f37321;}.cls-15{fill:#f15d22;}</style></defs><title>Asset 3</title><g id="Layer_2" data-name="Layer 2"><g id="Layer_1-2" data-name="Layer 1"><g id="_Group_" data-name="&lt;Group&gt;"><g id="_Group_2" data-name="&lt;Group&gt;"><path id="_Path_" data-name="&lt;Path&gt;" class="cls-1" d="M37.25,163.61,1.43,213.39s19.69,18.22,37.48,1.15L64.22,185.7Z"/><path id="_Path_2" data-name="&lt;Path&gt;" class="cls-2" d="M55.65,201.77l11.9-13.55L38,169.38l-2.34,3.27C40,183.82,46.67,194.33,55.65,201.77Z"/><path id="_Path_3" data-name="&lt;Path&gt;" class="cls-3" d="M35.69,172.65,4.76,215.9s19.45,16.3,37.47,1.15l13.42-15.28C46.67,194.33,40,183.82,35.69,172.65Z"/><path id="_Path_4" data-name="&lt;Path&gt;" class="cls-3" d="M181.15,162.34,164.3,148,143.43,176l31.51,21.9a26.27,26.27,0,0,0,10.67,3.57C187.79,188.83,184.82,174.88,181.15,162.34Z"/><path id="_Path_5" data-name="&lt;Path&gt;" class="cls-1" d="M181.15,162.34c3.67,12.54,6.64,26.49,4.46,39.08C201.06,202.9,211,187.73,211,187.73Z"/><path id="_Path_6" data-name="&lt;Path&gt;" class="cls-4" d="M183.08,169.39,165,153.9l-24.13,25.38,31.5,21.9a26.68,26.68,0,0,0,12.73,2.91C187.67,193.11,186,180.9,183.08,169.39Z"/><path id="_Path_7" data-name="&lt;Path&gt;" class="cls-3" d="M208.43,191.06l-25.35-21.67c2.89,11.51,4.59,23.72,2,34.7C199.22,203.66,208.43,191.06,208.43,191.06Z"/><path id="_Path_8" data-name="&lt;Path&gt;" class="cls-5" d="M135.7,133.35c.32-.34.64-.69,1-1a48.22,48.22,0,0,0-15.94,13.42A69.59,69.59,0,0,0,135.7,133.35Z"/><path id="_Path_9" data-name="&lt;Path&gt;" class="cls-5" d="M146.37,129.18a30,30,0,0,0-9.72,3.13c-.31.35-.63.7-1,1a69.59,69.59,0,0,1-15,12.38c-5.12,6.65-8.24,14.36-7.39,21.34.75,6.15,7.75,16.59,11.58,20.89,19.16-7.35,39.38-27.75,46.71-46.41C165.55,136.08,155.11,128.11,146.37,129.18Z"/><path id="_Path_10" data-name="&lt;Path&gt;" class="cls-5" d="M36.2,149.82a56.3,56.3,0,0,0-7.58,8.53C40.33,175.16,64,189.88,84.76,192.66c2.67-5.16,7.7-17.07,6.94-23.28a24.81,24.81,0,0,0-5.51-12.3A107.09,107.09,0,0,1,36.2,149.82Z"/><path id="_Path_11" data-name="&lt;Path&gt;" class="cls-4" d="M51,141.69c-5.15.62-10.42,4.06-14.84,8.13a107.09,107.09,0,0,0,50,7.26C78.14,147,63,140.23,51,141.69Z"/><polygon id="_Path_12" data-name="&lt;Path&gt;" class="cls-6" points="88.8 193.09 95.06 215.72 119.39 212.76 120.37 189.54 88.8 193.09"/><g id="_Group_3" data-name="&lt;Group&gt;"><rect id="_Path_13" data-name="&lt;Path&gt;" class="cls-1" x="76.69" y="21.06" width="30.18" height="2.76" transform="translate(59.97 111.41) rotate(-84.06)"/><rect id="_Path_14" data-name="&lt;Path&gt;" class="cls-1" x="74.82" y="9.25" width="2.76" height="30.18" transform="translate(-3.74 27.32) rotate(-19.85)"/><path id="_Path_15" data-name="&lt;Path&gt;" class="cls-3" d="M106.63,41.49a9.3,9.3,0,0,1-8.11,10.36L76.64,54.52a9.3,9.3,0,0,1-10.36-8.11h0a9.3,9.3,0,0,1,8.11-10.36l21.88-2.67a9.3,9.3,0,0,1,10.36,8.11Z"/><path id="_Path_16" data-name="&lt;Path&gt;" class="cls-1" d="M75.51,8A5.68,5.68,0,1,1,69.18,3,5.68,5.68,0,0,1,75.51,8Z"/><path id="_Path_17" data-name="&lt;Path&gt;" class="cls-1" d="M99.77,5A5.68,5.68,0,1,1,93.44,0,5.69,5.69,0,0,1,99.77,5Z"/></g><path id="_Path_18" data-name="&lt;Path&gt;" class="cls-7" d="M28.62,158.35a33,33,0,0,1,8.4-8.19,107.81,107.81,0,0,1-17.38-8.64A81.49,81.49,0,0,0,28.62,158.35Z"/><path id="_Path_19" data-name="&lt;Path&gt;" class="cls-8" d="M176.62,101.9c-2.61-21.42-13-37.24-28-47.33.68,2,1.37,3.93,2.09,5.78,9,26,2,55-15,73-14,15.37-33.54,23-54.06,24.09a32.94,32.94,0,0,1,3.12,35.22A82.17,82.17,0,0,0,124.9,188a33,33,0,0,1,46.71-46.41A81.23,81.23,0,0,0,176.62,101.9Z"/><path id="_Path_20" data-name="&lt;Path&gt;" class="cls-7" d="M135.7,133.35c17-18,24-47,15-73-.72-1.85-1.41-3.79-2.09-5.78-16.33-11-38.15-15.17-61.46-12.33-44.73,5.46-78,34.69-72.51,79.42a81.82,81.82,0,0,0,5,19.86A107.81,107.81,0,0,0,37,150.16a33,33,0,0,1,44.62,7.28C102.16,156.3,121.69,148.72,135.7,133.35Z"/><path id="_Path_21" data-name="&lt;Path&gt;" class="cls-9" d="M186.33,81.75C124.35,90.51,61.87,98.07,0,105.58a3.43,3.43,0,0,0,3.81,2.94L183.64,86.59a3.43,3.43,0,0,0,3-3.83A3.38,3.38,0,0,0,186.33,81.75Z"/><path id="_Path_22" data-name="&lt;Path&gt;" class="cls-10" d="M182.81,79.77,3,101.7a3.43,3.43,0,0,0-3,3.83s0,0,0,0c61.83-7.51,124.31-15.07,186.29-23.83A3.42,3.42,0,0,0,182.81,79.77Z"/><path id="_Path_23" data-name="&lt;Path&gt;" class="cls-10" d="M179.45,92.86,8.24,113.74a3.36,3.36,0,0,0-2.83,3.81,2.3,2.3,0,0,0,.06.28c59.14-8.24,118.28-14.5,177.42-22.8A3.29,3.29,0,0,0,179.45,92.86Z"/><path id="_Path_24" data-name="&lt;Path&gt;" class="cls-9" d="M182.89,95c-59.14,8.3-118.28,14.56-177.42,22.8a3.34,3.34,0,0,0,3.6,2.74L180.28,99.68A3.42,3.42,0,0,0,182.89,95Z"/></g><g id="_Group_4" data-name="&lt;Group&gt;"><path id="_Path_25" data-name="&lt;Path&gt;" class="cls-8" d="M109.42,65.9a35.92,35.92,0,0,0-25.66-3.71c-.6.13-1.2.28-1.79.45A36.1,36.1,0,0,0,57.05,107.2a37.54,37.54,0,0,0,2,5.44A36.1,36.1,0,1,0,109.42,65.9Z"/><path id="_Path_26" data-name="&lt;Path&gt;" class="cls-6" d="M97.25,113.28c4.67-3.6,9.79-9.59,11.46-15.74a49.23,49.23,0,0,0-2.24-27.2,30.64,30.64,0,0,0-21.53-3q-.76.16-1.53.39a30.75,30.75,0,0,0-19.52,42.63,30.45,30.45,0,0,0,6.69,9.28C79.54,122.33,90.47,119.46,97.25,113.28Z"/><path id="_Path_27" data-name="&lt;Path&gt;" class="cls-11" d="M106.83,70.53l-.36-.19a49.23,49.23,0,0,1,2.24,27.2c-1.67,6.15-6.79,12.14-11.46,15.74-6.78,6.18-17.71,9-26.67,6.39.62.58,1.25,1.15,1.9,1.68a30.78,30.78,0,1,0,34.35-50.82Z"/><path id="_Path_28" data-name="&lt;Path&gt;" class="cls-12" d="M82.49,87c-2.23,4.4-6.69,6.62-9.95,5s-4.09-6.56-1.86-11,6.68-6.62,9.95-5S84.72,82.62,82.49,87Z"/><path id="_Path_29" data-name="&lt;Path&gt;" class="cls-12" d="M71.7,99.66a3.38,3.38,0,1,1-1.57-4.36A3.28,3.28,0,0,1,71.7,99.66Z"/></g><path id="_Path_30" data-name="&lt;Path&gt;" class="cls-13" d="M110.8,222.6l9.12,83.3S59.3,228.24,110.8,222.6Z"/><path id="_Path_31" data-name="&lt;Path&gt;" class="cls-1" d="M110.8,222.6l9.12,83.3S162.3,217,110.8,222.6Z"/><path id="_Path_32" data-name="&lt;Path&gt;" class="cls-14" d="M110.8,222.6l5.35,48.93S80.55,225.91,110.8,222.6Z"/><path id="_Path_33" data-name="&lt;Path&gt;" class="cls-15" d="M110.8,222.6l5.35,48.93S141.05,219.29,110.8,222.6Z"/></g></g></g></svg>