<svg xmlns="http://www.w3.org/2000/svg" viewBox="0 0 344.7 353.28"><defs><style>.cls-1{fill:#ffc40c;}.cls-2{fill:#fdb515;}.cls-3{fill:#43bead;}.cls-4{fill:#85cfc3;}.cls-5{fill:#359e90;}.cls-6{fill:#f78d1e;}.cls-7{fill:#e26a1f;}.cls-8{fill:#fff;}.cls-9{fill:#b3b5b8;}.cls-10{fill:#e9e9ea;}.cls-11{fill:#95979a;}.cls-12{fill:#7d7e81;}.cls-13{fill:#b75515;}.cls-14{fill:#974507;}.cls-15{fill:#002c34;}.cls-16{fill:#00505b;}.cls-17{fill:#004049;}.cls-18{fill:#f37321;}.cls-19{fill:#f15d22;}</style></defs><title>Asset 2</title><g id="Layer_2" data-name="Layer 2"><g id="Layer_1-2" data-name="Layer 1"><g id="_Group_" data-name="&lt;Group&gt;"><path id="_Path_" data-name="&lt;Path&gt;" class="cls-1" d="M72.51,278.39,0,353.28S26.21,233.55,72.51,278.39Z"/><path id="_Path_2" data-name="&lt;Path&gt;" class="cls-2" d="M72.51,278.39,0,353.28S118.82,323.22,72.51,278.39Z"/><g id="_Group_2" data-name="&lt;Group&gt;"><path id="_Compound_Path_" data-name="&lt;Compound Path&gt;" class="cls-3" d="M333.2,1c-5.15-1.73-10.75-.88-15.25.5h0a42.14,42.14,0,0,0-8.76,3.81L168.52,74.83l-9.41,2.6q-3,2.82-5.91,5.76c-2.62,2.66-5.17,5.38-7.62,8.17-40.74,46.14-59.84,107.22-70.79,117l13.93,13.46,21,20.3L339.48,4.8A16.53,16.53,0,0,0,333.2,1Z"/><path id="_Path_3" data-name="&lt;Path&gt;" class="cls-3" d="M333.2,1,244.71,61.35,89.11,222.06l-.39-.27L74.79,208.33c10.95-9.75,30.05-70.83,70.79-117,2.45-2.79,5-5.51,7.62-8.17q2.88-2.94,5.91-5.76l9.41-2.6L309.16,5.29a42.14,42.14,0,0,1,8.76-3.81h0C322.45.09,328.05-.76,333.2,1Z"/><path id="_Path_4" data-name="&lt;Path&gt;" class="cls-4" d="M317.92,1.48,171,83.64,156,88.94l-2.76-5.75q2.88-2.94,5.91-5.76l9.41-2.6L309.16,5.29A42.14,42.14,0,0,1,317.92,1.48Z"/><path id="_Compound_Path_2" data-name="&lt;Compound Path&gt;" class="cls-3" d="M339.48,4.8,109.74,242.09l21,20.36,13.9,13.48c9.39-11.25,69.82-32.32,114.62-74.53q4.06-3.81,7.92-7.87,2.83-3,5.57-6.1l2.29-9.49L340,35.12a42.34,42.34,0,0,0,3.53-8.87v0c1.24-4.54,1.9-10.17,0-15.26A16.42,16.42,0,0,0,339.48,4.8Z"/><path id="_Path_5" data-name="&lt;Path&gt;" class="cls-5" d="M343.52,11,286,101.36,130.44,262.07l.28.38,13.9,13.48c9.39-11.25,69.82-32.32,114.62-74.53q4.06-3.81,7.92-7.87,2.83-3,5.57-6.1l2.29-9.49L340,35.12a42.34,42.34,0,0,0,3.53-8.87v0C344.75,21.68,345.41,16.05,343.52,11Z"/><path id="_Path_6" data-name="&lt;Path&gt;" class="cls-3" d="M343.5,26.25,266.14,175.7,261.33,191l5.83,2.58q2.83-3,5.57-6.1l2.29-9.49L340,35.12A42.34,42.34,0,0,0,343.5,26.25Z"/><path id="_Path_7" data-name="&lt;Path&gt;" class="cls-6" d="M75.08,208.61l-7.69-7.43-19.46-18.8-8.29-8s-3.66-2.64-5.12-10.06-4-46.45-4-46.45-1.3-4.14,5.09-6.16l123.82-34c-.89,3.24-2,7-3.44,11.23C146.34,117.37,123.51,165.86,75.08,208.61Z"/><rect id="_Path_8" data-name="&lt;Path&gt;" class="cls-7" x="99.01" y="166.21" width="126.45" height="41.09" rx="15.29" ry="15.29" transform="translate(-84.79 173.41) rotate(-45.93)"/><g id="_Group_3" data-name="&lt;Group&gt;"><path id="_Path_9" data-name="&lt;Path&gt;" class="cls-8" d="M149.76,155l-40.54,41.87a5.89,5.89,0,0,1-.13-8.33l16.39-16.93C127.74,169.25,147.43,152.72,149.76,155Z"/><path id="_Path_10" data-name="&lt;Path&gt;" class="cls-9" d="M134,179.79l-16.39,16.93a5.89,5.89,0,0,1-8.34.13L149.76,155c1.17,1.13-2.21,6.75-6.18,12.37A157.15,157.15,0,0,1,134,179.79Z"/></g><g id="_Group_4" data-name="&lt;Group&gt;"><path id="_Path_11" data-name="&lt;Path&gt;" class="cls-10" d="M194.4,198.19l-40.54,41.88a5.89,5.89,0,0,1-.14-8.34l16.39-16.93C172.38,212.46,192.06,195.93,194.4,198.19Z"/><path id="_Path_12" data-name="&lt;Path&gt;" class="cls-11" d="M178.58,223l-16.39,16.93a5.89,5.89,0,0,1-8.33.14l40.54-41.88c1.17,1.14-2.21,6.75-6.18,12.37A154.5,154.5,0,0,1,178.58,223Z"/></g><rect id="_Path_13" data-name="&lt;Path&gt;" class="cls-12" x="158.68" y="217.69" width="6.37" height="4.62" transform="translate(-108.79 183.26) rotate(-45.93)"/><rect id="_Path_14" data-name="&lt;Path&gt;" class="cls-12" x="125.83" y="185.89" width="6.37" height="4.62" transform="translate(-95.94 149.99) rotate(-45.93)"/><path id="_Path_15" data-name="&lt;Path&gt;" class="cls-13" d="M175.49,188.57a11.25,11.25,0,1,1-.25-15.91A11.24,11.24,0,0,1,175.49,188.57Z"/><g id="_Group_5" data-name="&lt;Group&gt;"><path id="_Path_16" data-name="&lt;Path&gt;" class="cls-10" d="M194.92,152.26l-40.54,41.87a5.88,5.88,0,0,1-.14-8.33l16.39-16.93C172.9,166.53,192.58,150,194.92,152.26Z"/><path id="_Path_17" data-name="&lt;Path&gt;" class="cls-9" d="M179.1,177.07,162.71,194a5.88,5.88,0,0,1-8.33.13l40.54-41.87c1.17,1.13-2.21,6.75-6.18,12.37A154,154,0,0,1,179.1,177.07Z"/></g><rect id="_Path_18" data-name="&lt;Path&gt;" class="cls-7" x="94.77" y="208.31" width="15.99" height="76.44" transform="translate(-145.83 148.88) rotate(-45.93)"/><polygon id="_Path_19" data-name="&lt;Path&gt;" class="cls-6" points="60.73 253.31 98.04 289.88 124.66 278.86 69.74 225.69 60.73 253.31"/><path id="_Path_20" data-name="&lt;Path&gt;" class="cls-2" d="M156,88.94c1.42-4.21,2.55-8,3.44-11.23l-123.82,34c-6.39,2-5.09,6.16-5.09,6.16s2.55,39.05,4,46.45,5.12,10.06,5.12,10.06l8.29,8,.16,0c-4.32-4.19-7.16-62.57-7.16-62.57l105-28.13Z"/><polygon id="_Path_21" data-name="&lt;Path&gt;" class="cls-13" points="95.3 129.14 85.49 119.65 85.34 125.5 92.3 132.24 99.27 138.98 105.11 138.64 95.3 129.14"/><polygon id="_Path_22" data-name="&lt;Path&gt;" class="cls-2" points="85.34 125.5 68.19 140.06 85.49 119.65 85.34 125.5"/><path id="_Path_23" data-name="&lt;Path&gt;" class="cls-7" d="M144.62,275.93l7.68,7.45,19.42,18.85,8.27,8s2.76,3.56,10.22,4.79,46.55,2.52,46.55,2.52,4.18,1.17,6-5.28l30-124.86c-3.22,1-7,2.24-11.11,3.8C233.51,201.77,185.78,226.15,144.62,275.93Z"/><path id="_Path_24" data-name="&lt;Path&gt;" class="cls-6" d="M261.62,191.23c4.15-1.56,7.89-2.81,11.11-3.8l-30,124.86c-1.82,6.45-6,5.28-6,5.28s-39.1-1.29-46.55-2.52S180,310.26,180,310.26l-8.27-8,0-.16c4.32,4.18,62.77,5.12,62.77,5.12L259.24,201.4Z"/><polygon id="_Path_25" data-name="&lt;Path&gt;" class="cls-14" points="223.39 253.16 233.2 262.65 227.36 263 220.4 256.25 213.43 249.51 213.59 243.67 223.39 253.16"/><polygon id="_Path_26" data-name="&lt;Path&gt;" class="cls-13" points="227.36 263 213.35 280.61 233.2 262.65 227.36 263"/><polygon id="_Path_27" data-name="&lt;Path&gt;" class="cls-6" points="213.43 249.51 196.28 264.08 213.59 243.67 213.43 249.51"/><polygon id="_Path_28" data-name="&lt;Path&gt;" class="cls-7" points="99.27 138.98 85.26 156.59 105.11 138.64 99.27 138.98"/><g id="_Group_6" data-name="&lt;Group&gt;"><path id="_Path_29" data-name="&lt;Path&gt;" class="cls-15" d="M285.42,95.19a35.91,35.91,0,0,0-9.68-24.06q-.63-.67-1.29-1.32a36.12,36.12,0,1,0,11,25.38Z"/><path id="_Path_30" data-name="&lt;Path&gt;" class="cls-16" d="M238.34,108.45c5.45,2.24,13.2,3.66,19.36,2a49.29,49.29,0,0,0,22.4-15.6,30.72,30.72,0,0,0-8.24-20.11c-.36-.38-.73-.76-1.11-1.12a30.79,30.79,0,0,0-43.53.7,32.15,32.15,0,0,0-3.14,3.82,30.63,30.63,0,0,0-4.67,10.45C221.61,97.68,229.58,105.69,238.34,108.45Z"/><path id="_Path_31" data-name="&lt;Path&gt;" class="cls-17" d="M280.11,95.27c0-.14,0-.27,0-.41a49.29,49.29,0,0,1-22.4,15.6c-6.16,1.65-13.91.23-19.36-2-8.76-2.76-16.73-10.77-18.93-19.85-.19.83-.37,1.65-.49,2.49a30.78,30.78,0,1,0,61.19,4.18Z"/><path id="_Path_32" data-name="&lt;Path&gt;" class="cls-8" d="M253.63,82.5c-4.92.28-9.07-2.46-9.28-6.11s3.62-6.84,8.54-7.11,9.08,2.46,9.28,6.11S258.55,82.22,253.63,82.5Z"/><path id="_Path_33" data-name="&lt;Path&gt;" class="cls-8" d="M237.29,79.52a3.38,3.38,0,1,1,3-3.55A3.28,3.28,0,0,1,237.29,79.52Z"/></g></g><path id="_Path_34" data-name="&lt;Path&gt;" class="cls-18" d="M72.51,278.39l-42.59,44S45.31,252.05,72.51,278.39Z"/><path id="_Path_35" data-name="&lt;Path&gt;" class="cls-19" d="M72.51,278.39l-42.59,44S99.71,304.72,72.51,278.39Z"/></g></g></g></svg>