<svg xmlns="http://www.w3.org/2000/svg" viewBox="0 0 195.25 148.94"><defs><style>.cls-1{fill:#084355;}.cls-2{fill:#cf551d;}.cls-3{fill:#f78c1f;}.cls-4{fill:#e26a20;}.cls-5{fill:#00505b;}.cls-6{fill:#42bfad;}.cls-7{fill:#39a497;}.cls-8{fill:#003f44;}.cls-9{fill:#fdb517;}.cls-10{fill:#1b5f77;}</style></defs><title>Asset 3</title><g id="Layer_2" data-name="Layer 2"><g id="Layer_1-2" data-name="Layer 1"><path class="cls-1" d="M36.5,52l-10-22.15s.18-2.16,2-2.16,6.27,16.26,7.28,16.06.95-.6,1.22-.6.92,2.73.92,2.73l-.58,6.51Z"/><circle class="cls-2" cx="186.08" cy="9.17" r="9.17"/><path class="cls-3" d="M39.06,102.53l-2.56,1.54s3.15,7.3,6.49,10.18a10.36,10.36,0,0,1,3.24-2.09C44.27,109.22,40.54,106.28,39.06,102.53Z"/><path class="cls-4" d="M47.58,109.2c-5.12,1.34-6.43-7.93-6.43-7.93l-2.09,1.26c1.48,3.75,5.21,6.69,7.17,9.63A10.36,10.36,0,0,0,43,114.25a5.92,5.92,0,0,0,1.37.91C48.16,116.81,52.71,107.85,47.58,109.2Z"/><path class="cls-3" d="M184.47,11.07C181.47,7.8,136,27.72,136,27.72a15.89,15.89,0,0,0,1.25,7.93c17.56-5.08,32.35-14.39,47.46-24.19A1.36,1.36,0,0,0,184.47,11.07Z"/><path class="cls-4" d="M137.26,35.65a8.33,8.33,0,0,0,6.43,4.84s44.19-22.65,41-29C169.61,21.26,154.82,30.57,137.26,35.65Z"/><path class="cls-5" d="M39.9,43.71l-1.76.76S26,93.85,67.93,115.68l1.18-.52C74.07,87.65,66.33,55.05,39.9,43.71Z"/><path class="cls-6" d="M133.9,16c-25.58,15.1-49.79,29.77-76.2,41.46,8.73,11.16,12.71,26.21,12.81,41.26,30.33-14.56,58.68-32.09,87-49.88C153.62,32.07,142.94,21.87,133.9,16Z"/><path class="cls-6" d="M60.66,34.71l-20.76,9A44.92,44.92,0,0,1,57.7,57.48c6.91-3.06,13.68-6.33,20.35-9.75C74,41.59,66.91,38.7,60.66,34.71Z"/><path class="cls-7" d="M74.55,28.69l-13.89,6c6.25,4,13.3,6.88,17.39,13,3.4-1.74,6.76-3.53,10.12-5.35C84.49,36.82,80.1,31.71,74.55,28.69Z"/><path class="cls-6" d="M81.1,25.85l-6.55,2.84c5.55,3,9.94,8.13,13.62,13.69,2.54-1.37,5.07-2.77,7.6-4.18A41,41,0,0,0,81.1,25.85Z"/><path class="cls-7" d="M86.46,23.52,81.1,25.85A41,41,0,0,1,95.77,38.2c2-1.11,4-2.24,5.93-3.36C97.92,29.62,92.32,26.3,86.46,23.52Z"/><path class="cls-6" d="M119.56,9.17,86.46,23.52c5.86,2.78,11.46,6.1,15.24,11.32C112.37,28.77,123,22.45,133.9,16A58,58,0,0,0,119.56,9.17Z"/><path class="cls-6" d="M70.51,98.74a88.65,88.65,0,0,1-1.4,16.42l88.76-39.33a67.86,67.86,0,0,0-.35-27C129.19,66.65,100.84,84.18,70.51,98.74Z"/><path class="cls-8" d="M31.13,78.72c2.76-6.44,12.56-7.4,19.41-12.22a13.88,13.88,0,0,0-2.15-1S26.27,73.32,26.81,82a7.23,7.23,0,0,1-1.14,4.4c1.38.73,2.74,1.48,4.1,2.24l.28-.16C31.13,87.35,30.05,82,31.13,78.72Z"/><path class="cls-5" d="M13.33,93.28s-21,44.24-10.25,52.33a14.37,14.37,0,0,0,3.72,2c-2.45-23.17-.38-45.56,23-59-1.36-.76-2.72-1.51-4.1-2.24C22.41,91.53,13.33,93.28,13.33,93.28Z"/><path class="cls-7" d="M50.54,66.5c-6.85,4.82-16.65,5.78-19.41,12.22-1.08,3.23,0,8.63-1.08,9.71C6.43,101.84,4.34,124.31,6.8,147.58c11.84,4.39,31.33-3,26.49-6.83-5.4-4.31-3.78,8.63-3.24-11.86s9.17-26.44,9.17-26.44l21.19-13C62.46,74.75,54.51,68.61,50.54,66.5Z"/><path class="cls-3" d="M14.41,138.24c-4.14.89-5,3.41-5,4.85s13.75,2.84,19.52-1.58c-3.72-4.53-7.1-9.59-10.41-14.53C17.8,132.44,16.53,137.77,14.41,138.24Z"/><path class="cls-4" d="M30.37,140s1.15-4.24,2.35-9.65c-5.36-7.46-9.82-15.47-12.27-24l-.11-.06c-2.88-2-5.75,0-6.83,4s5.21,2.22,5.57,5a69.31,69.31,0,0,1-.6,11.82c3.31,4.94,6.69,10,10.41,14.53A7.09,7.09,0,0,0,30.37,140Z"/><path class="cls-3" d="M35.26,110.18s.9-2.83-3-1.86a16.26,16.26,0,0,1-11.76-2c2.45,8.58,6.91,16.59,12.27,24C34.25,123.4,35.87,114.53,35.26,110.18Z"/><path class="cls-3" d="M53.51,75.66,39.9,83a9.64,9.64,0,0,0,.46,2c5-2.37,9.62-5.1,14.54-7.54A2.49,2.49,0,0,0,53.51,75.66Z"/><path class="cls-4" d="M40.36,85c.29.76.72,1.41,1.38,1.25,1.44-.36,13.48-6.57,13.48-6.57a8.92,8.92,0,0,0-.32-2.22C50,79.92,45.35,82.65,40.36,85Z"/><path class="cls-5" d="M146.41,6.77c-1.73.77-3.42,1.6-5,2.53,1.78,1.62,4.14,4,6.82,6.9a20,20,0,0,1,5.27-2.13C151,11.27,148.53,8.78,146.41,6.77Z"/><path class="cls-6" d="M139.78,1.69a5.21,5.21,0,0,0-5.4,1.06c-3.09,3-1.56,9.89-1,11.93a2.7,2.7,0,1,0,5.21-1.39c-.65-2.48-.87-5.43-.51-6.48l.14,0a16.49,16.49,0,0,1,3.16,2.46c1.63-.93,3.32-1.76,5-2.53C143.41,3.92,141,2.05,139.78,1.69Z"/><path class="cls-5" d="M170.6,37.55c-.39-.73-.8-1.46-1.23-2.21-2.12-.07-4.23-.13-6.3-.08.48.75.92,1.46,1.34,2.16C166.51,37.36,168.56,37.46,170.6,37.55Z"/><path class="cls-7" d="M171.16,38.65c-.18-.37-.36-.73-.56-1.1-2-.09-4.09-.19-6.19-.13.22.37.44.74.64,1.1C167.09,38.47,169.12,38.53,171.16,38.65Z"/><path class="cls-7" d="M169,50c-.51,1.77-4.52,1.26-6.22,1a2.7,2.7,0,1,0-.93,5.31,22.63,22.63,0,0,0,3.92.38c6.18,0,8-3.32,8.51-5.54a8.72,8.72,0,0,0,.18-2.27c-1.87-.57-3.73-1.16-5.6-1.72A6.08,6.08,0,0,1,169,50Z"/><path class="cls-6" d="M165.05,38.52a34,34,0,0,1,3.79,8.59c1.87.56,3.73,1.15,5.6,1.72-.12-2.84-1.34-6.36-3.28-10.18C169.12,38.53,167.09,38.47,165.05,38.52Z"/><path class="cls-6" d="M148.18,16.2c2.55,2.79,5.38,6.1,8.3,9.85,2.68,3.43,4.85,6.5,6.59,9.21,2.07,0,4.18,0,6.3.08a137.89,137.89,0,0,0-15.92-21.27A20,20,0,0,0,148.18,16.2Z"/><ellipse class="cls-5" cx="88" cy="68.07" rx="9.93" ry="10.19"/><path class="cls-3" d="M87.23,72.24c4.29-.85,6.53-5.12,6.72-10.09a7.8,7.8,0,0,0-6-2.77,8,8,0,0,0-7.94,8.14,8.31,8.31,0,0,0,.45,2.7C82.46,72.07,84.85,73,87.23,72.24Z"/><path class="cls-4" d="M94,62.15c-.19,5-2.43,9.24-6.72,10.09-2.38.8-4.77-.17-6.72-2A8,8,0,0,0,88,75.66a8,8,0,0,0,7.94-8.14A8.22,8.22,0,0,0,94,62.15Z"/><path class="cls-9" d="M82.78,63.43s-2.52,2-1.48,4.64,1.62,4.08,2.56,3,.45-1.5-.72-3S82.78,63.43,82.78,63.43Z"/><ellipse class="cls-5" cx="112.77" cy="57.89" rx="9.93" ry="10.19"/><path class="cls-3" d="M112,62.06c4.28-.86,6.52-5.13,6.72-10.1a7.86,7.86,0,0,0-6-2.77,8,8,0,0,0-7.94,8.14,8.27,8.27,0,0,0,.46,2.7C107.24,61.89,109.62,62.85,112,62.06Z"/><path class="cls-4" d="M118.73,52c-.2,5-2.44,9.24-6.72,10.1-2.39.79-4.77-.17-6.72-2a7.94,7.94,0,0,0,7.48,5.44,8,8,0,0,0,7.94-8.14A8.23,8.23,0,0,0,118.73,52Z"/><path class="cls-9" d="M107.56,53.25s-2.52,2-1.49,4.64,1.62,4.08,2.56,3,.45-1.51-.71-3S107.56,53.25,107.56,53.25Z"/><ellipse class="cls-5" cx="135.97" cy="45.84" rx="9.93" ry="10.19"/><path class="cls-3" d="M135.2,50c4.29-.86,6.53-5.13,6.72-10.1A7.84,7.84,0,0,0,136,37.14,8,8,0,0,0,128,45.28a8.31,8.31,0,0,0,.45,2.7C130.44,49.84,132.82,50.8,135.2,50Z"/><path class="cls-4" d="M141.92,39.91c-.19,5-2.43,9.24-6.72,10.1-2.38.79-4.76-.17-6.72-2A8,8,0,0,0,136,53.42a8,8,0,0,0,7.94-8.14A8.24,8.24,0,0,0,141.92,39.91Z"/><path class="cls-9" d="M130.75,41.19s-2.52,2-1.48,4.65,1.62,4.08,2.56,3,.45-1.51-.72-3S130.75,41.19,130.75,41.19Z"/><path class="cls-10" d="M50.8,45.2,39.9,19.74s-4.5,1.49-3.4,3.44,7.22,12.12,6.32,14a21.88,21.88,0,0,1-2.92,4,4.51,4.51,0,0,0,1.85,1.72c1.07.38,5.92.79,7.18,2.93Z"/></g></g></svg>