<svg xmlns="http://www.w3.org/2000/svg" viewBox="0 0 123.03 127.31"><defs><style>.cls-1{fill:#39a497;}.cls-2{fill:#e26a20;}.cls-3{fill:#00505b;}.cls-4{fill:#f78c1f;}.cls-5{fill:#046970;}.cls-6{fill:#42bfad;}.cls-7{fill:#ffc40e;}</style></defs><title>Asset 5</title><g id="Layer_2" data-name="Layer 2"><g id="Layer_1-2" data-name="Layer 1"><path class="cls-1" d="M119,95.12l2,8.09s-2.88,9.71-5.4,9.89-8.93,0-8.93,0Z"/><path class="cls-2" d="M104.45,62.66q1.38-3.22,2.64-6.54L49.28,0,49,0A50,50,0,0,1,46.5,19.73C66.5,33.25,85.53,47.91,104.45,62.66Z"/><path class="cls-2" d="M123,71.57,115.23,64c-.45,2-.94,3.92-1.48,5.89,3.06,2.39,6.12,4.79,9.19,7.17C123,75.31,123.05,73.47,123,71.57Z"/><path class="cls-3" d="M107.09,56.12q-1.26,3.32-2.64,6.54l9.3,7.26c.54-2,1-3.94,1.48-5.89Z"/><path class="cls-4" d="M104.45,62.66C85.53,47.91,66.5,33.25,46.5,19.73,39.74,39.86,20.69,54.67,0,61.84c0,.72,0,1.44,0,2.17l62.75,48C82.23,101.52,95.53,83.39,104.45,62.66Z"/><path class="cls-4" d="M113.75,69.92c-6.12,22.38-18.29,45.07-39.36,51l8.32,6.37s38.21-10.55,40.23-50.22C119.87,74.71,116.81,72.31,113.75,69.92Z"/><path class="cls-5" d="M113.75,69.92l-9.3-7.26C95.53,83.39,82.23,101.52,62.75,112l11.64,8.91C95.46,115,107.63,92.3,113.75,69.92Z"/><path class="cls-2" d="M49,0C44.85.55,1.16,7.27,0,61.84,27,52.5,51.16,30.19,49,0Z"/><path class="cls-1" d="M13.2,11.89a.4.4,0,0,0-.13.07C11.35,13,2.92,22,3.24,27.13,9,24,13.58,18.06,13.2,11.89Z"/><path class="cls-3" d="M27.78,13.31S15.38,11,13.2,11.89C13.58,18.06,9,24,3.24,27.13a1.33,1.33,0,0,0,0,.2L8.63,38.54S28.86,34.88,27.78,13.31Z"/><polygon class="cls-6" points="46.5 57.44 53.76 39.86 63.72 59.05 69.09 47.34 74.98 86.19 63.72 67.19 59.65 74.68 46.5 57.44"/><path class="cls-7" d="M17.26,58.52l76,56.67s-3.37,5.49-6.4,5.75L8.23,62.66Z"/></g></g></svg>