<svg xmlns="http://www.w3.org/2000/svg" viewBox="0 0 225.77 106.3"><defs><style>.cls-1{fill:#f4e180;}.cls-1,.cls-2,.cls-3,.cls-4,.cls-5,.cls-6{fill-rule:evenodd;}.cls-2{fill:#fae596;}.cls-3{fill:#f6921e;}.cls-4{fill:#db8027;}.cls-5{fill:#e64925;}.cls-6{fill:#ce4126;}</style></defs><title>Asset 2</title><g id="Layer_2" data-name="Layer 2"><g id="Layer_1-2" data-name="Layer 1"><path class="cls-1" d="M12.88,85.54,55.44,63.48c4.27-2.14,10.51-5.65,15.45-6.6-5.73,7.61-55.64,31.4-60.95,36.95,9.62-2.69,68.54-36,77.64-28.15C85.2,70.55,73.83,74.46,67.19,77,59.55,80,52.26,83,44.8,85.87L0,104.06c14.6-1.94,78.06-27.87,89.84-20-1.67,5.87-9.76,7.31-15.28,9-17,5.19-52.29,10-58.22,12.47,30.09,3.77,96.13-7.23,125.9-16.28,21.66-6.59,36.65-12.91,53.77-22.2C240.52,42.9,230,2.75,197.77.16,167.25-2.29,113,24.49,86.33,39.72,75.56,45.87,21.33,77.18,12.88,85.54Z"/><path class="cls-2" d="M43.39,91.16c20-6.09,40.29-11.21,46.45-7.09-1.67,5.87-9.76,7.31-15.28,9-17,5.19-52.29,10-58.22,12.47,30.09,3.77,96.13-7.23,125.9-16.28,21.66-6.59,36.65-12.91,53.77-22.2,26.55-14.41,33.53-34.52,28-48.94Z"/><path class="cls-3" d="M222.34,29.75c2-19.38-21.7-30.93-47-23.81a142.91,142.91,0,0,0-33.9,14.85c-4,2.37-28.53,17.08-29.9,21.34,5.17-.56,17.15-6.84,22.84-1.63,0,0,3.19.7-1.24,5.09a31.22,31.22,0,0,1-4.38,3.12c-3.08,1.95-6,3.52-9.65,5.51-3.88,2.11-15.88,8.22-17.63,12,10,2.71,30.55-7.42,42.27-3.15-.94,7.5-30.7,15.32-35.47,16.12l2.57,1.4a31.5,31.5,0,0,0,3.76,0L136,79.1C179.39,72.88,219,62.19,222.34,29.75Z"/><path class="cls-4" d="M220.8,19.48C215.13,6.61,195.75.2,175.35,5.94a142.91,142.91,0,0,0-33.9,14.85c-4,2.37-28.54,17.08-29.9,21.34,5.17-.56,17.15-6.84,22.84-1.63,0,0,3.19.7-1.24,5.09a31.22,31.22,0,0,1-4.38,3.12c-3.08,1.95-6,3.52-9.65,5.51-3.88,2.11-15.88,8.22-17.63,12a13.85,13.85,0,0,0,2.77.43Z"/><path class="cls-5" d="M213.57,22.85c-3.5-7.78-11.25-12.91-21.75-14.36-12.46-1.73-37.27,13.35-41.58,22.85a19.47,19.47,0,0,0,1.39,1.71c1,1.63.8.34,1.2,2.54-2.79,4.06-10.68,4.13-3,14,3,3.81,11.91,7.63,18.11,8.61C187.72,61.31,225.57,49.52,213.57,22.85Z"/><path class="cls-6" d="M213.29,22.25c-3.62-7.44-11.24-12.34-21.47-13.76-12.45-1.73-37.27,13.35-41.58,22.85a19.47,19.47,0,0,0,1.39,1.71c1,1.63.8.34,1.2,2.54-2.66,3.87-10,4.11-3.93,12.71Z"/></g></g></svg>