<svg xmlns="http://www.w3.org/2000/svg" viewBox="0 0 184.69 237.8"><defs><style>.cls-1{fill:#f8da74;}.cls-1,.cls-2,.cls-3{fill-rule:evenodd;}.cls-2{fill:#f05f22;}.cls-3{fill:#ce4126;}</style></defs><title>Asset 3</title><g id="Layer_2" data-name="Layer 2"><g id="Layer_1-2" data-name="Layer 1"><path class="cls-1" d="M159.63,229.52c-10.78-17.12-38.89-36.42-51-56.37,5.35,1.91,8.24,5.49,12.78,9.74l36,34.2c-8.42-12.19-47.92-52.06-46-67.34,10.13,1.34,29.44,31.63,37.78,42.44,5.2,6.73,34.89,43.84,35.55,45.61-8.27-19.51-57.43-80.14-53.15-97.61,6.72.64,9.45,5.69,13.93,12.49,15.07,22.84,23,45.59,34.74,65-10.12-45.87-37.56-105-64.57-146C94.11,39,43.27-25.72,9.07,10.89-31.19,54,73.52,152.59,109.61,185.9Z"/><path class="cls-1" d="M159.63,229.52c-10.78-17.12-38.89-36.42-51-56.37,5.35,1.91,8.24,5.49,12.78,9.74l36,34.2c-8.42-12.19-47.92-52.06-46-67.34,10.13,1.34,29.44,31.63,37.78,42.44,5.2,6.73,34.89,43.84,35.55,45.61a72,72,0,0,0-4.22-8L17.71,3.92a37,37,0,0,0-8.64,7C-31.19,54,73.52,152.59,109.61,185.9Z"/><path class="cls-2" d="M82.05,141.14c.15-2.82-9.65-18.34-10.32-29.89,6.19-1.81,7.35-1,12.82,3.53,9.35,7.8,21,22.73,30.76,28.63,1.46-12.22-17.48-37-19.15-51.32,7.93-2.49,7.26-.29,17.94,12.53,5.17,6.2,10.1,17.07,15.48,21-.81-19.72-27.75-67.46-41.18-84.16-15.88-19.72-44.66-46.13-67-35.1C9.38,12.35,4.65,28.87,4.79,39.07,5,53.58,13.32,70.39,22.83,84,39.36,107.54,61.64,123.7,82.05,141.14Z"/><path class="cls-3" d="M82.05,141.14c.15-2.82-9.65-18.34-10.32-29.89,6.19-1.81,7.35-1,12.82,3.53,9.35,7.81,21,22.73,30.76,28.63,0-.43.07-.87.08-1.32L19.08,7.74C8.76,14.57,4.66,29.57,4.79,39.07,5,53.57,13.32,70.39,22.83,84,39.36,107.54,61.64,123.71,82.05,141.14Z"/></g></g></svg>