<svg xmlns="http://www.w3.org/2000/svg" viewBox="0 0 362.58 362.58"><defs><style>.cls-1{fill:#d4581d;}.cls-2{fill:#f69b1f;}.cls-3{fill:#f37920;}.cls-4{fill:#b23f15;}.cls-5{fill:#892203;}.cls-6{fill:#731700;}</style></defs><title>Asset 2</title><g id="Layer_2" data-name="Layer 2"><g id="Layer_1-2" data-name="Layer 1"><g id="_Clip_Group_" data-name="&lt;Clip Group&gt;"><g id="_Group_" data-name="&lt;Group&gt;"><path id="_Path_" data-name="&lt;Path&gt;" class="cls-1" d="M15.47,173.67c1.5-15.79,6.77-30.83,12.78-45.86S40.28,97,50.81,84.2C83.13,46.61,120,12.78,169.59,3.76A224.24,224.24,0,0,1,202.9,1.29,181.32,181.32,0,0,0,19.18,262.49c-1.67-11.05-3-22.24-6-33.19C8,210.5,13.22,192.46,15.47,173.67Z"/><path id="_Path_2" data-name="&lt;Path&gt;" class="cls-1" d="M205.25,1.58l-2.35-.29a224.24,224.24,0,0,0-33.31,2.47C120,12.78,83.13,46.61,50.81,84.2,40.28,97,34.27,112.77,28.25,127.81S17,157.88,15.47,173.67C13.22,192.46,8,210.5,13.22,229.3c3,10.95,4.29,22.14,6,33.19q3.88,7.75,8.49,15.09a181.3,181.3,0,1,0,177.58-276Z"/><path id="_Path_3" data-name="&lt;Path&gt;" class="cls-2" d="M15.47,173.67c1.5-15.79,6.77-30.83,12.78-45.86S40.28,97,50.81,84.2C83.13,46.61,120,12.78,169.59,3.76A224.24,224.24,0,0,1,202.9,1.29,181.32,181.32,0,0,0,19.18,262.49c-1.67-11.05-3-22.24-6-33.19C8,210.5,13.22,192.46,15.47,173.67Z"/><path id="_Path_4" data-name="&lt;Path&gt;" class="cls-3" d="M228.9,15c-7.44-5.41-16.25-8.54-23.65-13.4l-2.35-.29a224.24,224.24,0,0,0-33.31,2.47C120,12.78,83.13,46.61,50.81,84.2,40.28,97,34.27,112.77,28.25,127.81S17,157.88,15.47,173.67C13.22,192.46,8,210.5,13.22,229.3c3,10.95,4.29,22.14,6,33.19q3.88,7.75,8.49,15.09a127.05,127.05,0,0,0,16.48,4c54.93,8,115.84,12,160.78-28,32-29,56.92-60.92,66.91-102.86C282.82,101.86,270.84,47.93,228.9,15Z"/><path id="_Path_5" data-name="&lt;Path&gt;" class="cls-1" d="M205.25,1.58c7.4,4.86,16.21,8,23.65,13.4,41.94,33,53.92,86.88,42.94,135.81-10,41.94-34.95,73.9-66.91,102.86-44.94,40-105.85,36-160.78,28a127.05,127.05,0,0,1-16.48-4,181.3,181.3,0,1,0,177.58-276Z"/><path id="_Path_6" data-name="&lt;Path&gt;" class="cls-4" d="M82.25,48c-7.11-4.57-20.69,3.88-30.34,18.88s-11.7,30.87-4.58,35.44a7.72,7.72,0,0,0,3.24,1.15c-2.3-12.93,5-28.26,13.55-37.56a55.83,55.83,0,0,1,21.4-13.67A8.47,8.47,0,0,0,82.25,48Z"/><path id="_Path_7" data-name="&lt;Path&gt;" class="cls-5" d="M50.57,103.47c7.5,1,18.77-7.07,27.1-20,7.63-11.87,10.5-24.27,7.85-31.2a55.83,55.83,0,0,0-21.4,13.67C55.59,75.21,48.27,90.54,50.57,103.47Z"/><path id="_Path_8" data-name="&lt;Path&gt;" class="cls-6" d="M329.76,233.68c1.24-7.46.94-16.08-2.36-23-7.26,1.69-15.72,11.67-20.68,25.29-4.53,12.42-4.88,24.38-1.52,30.92A41.55,41.55,0,0,0,329.76,233.68Z"/><path id="_Path_9" data-name="&lt;Path&gt;" class="cls-4" d="M332.16,210.9a8.25,8.25,0,0,0-4.76-.19c3.3,6.89,3.6,15.51,2.36,23a41.55,41.55,0,0,1-24.56,33.24,9.07,9.07,0,0,0,4.85,4.66c7.95,2.9,19.34-8.34,25.44-25.1S340.1,213.8,332.16,210.9Z"/><path id="_Path_10" data-name="&lt;Path&gt;" class="cls-4" d="M119,54.09c-.13-2.43-1-4.31-2.49-5.27-4.11-2.56-11.82,2.38-17.24,11S92.82,77.63,96.92,80.2a5,5,0,0,0,3.24.61C101.27,68.53,108.73,59.49,119,54.09Z"/><path id="_Path_11" data-name="&lt;Path&gt;" class="cls-5" d="M100.16,80.81c4.22-.46,9.8-4.93,14-11.65,3.39-5.42,5.07-11,4.85-15.07C108.73,59.49,101.27,68.53,100.16,80.81Z"/><path id="_Path_12" data-name="&lt;Path&gt;" class="cls-5" d="M271.84,104.86a22.08,22.08,0,0,0-20.92-12.32,13.21,13.21,0,0,0-2.47,2.84c-5,7.85-.91,19.43,9.16,25.87,6.14,3.92,13.07,5,18.69,3.52A42.25,42.25,0,0,0,271.84,104.86Z"/><path id="_Path_13" data-name="&lt;Path&gt;" class="cls-4" d="M275.77,92.85c-8.69-5.56-19-5.47-24.85-.31a22.08,22.08,0,0,1,20.92,12.32,42.25,42.25,0,0,1,4.46,19.91,14.42,14.42,0,0,0,8.64-6.06C290,110.87,285.85,99.29,275.77,92.85Z"/><path id="_Path_14" data-name="&lt;Path&gt;" class="cls-5" d="M158,228.68A21.64,21.64,0,0,0,167.54,212a24.9,24.9,0,0,0-8.82-9.59c-10.08-6.45-22.52-5-27.79,3.26-4.4,6.87-2.4,16.29,4.24,23C142.66,232.94,151.27,234.19,158,228.68Z"/><path id="_Path_15" data-name="&lt;Path&gt;" class="cls-4" d="M167.54,212A21.64,21.64,0,0,1,158,228.68c-6.73,5.51-15.34,4.26-22.83-.05a27,27,0,0,0,4.46,3.62c10.08,6.44,22.52,5,27.79-3.26C170.62,224,170.42,217.65,167.54,212Z"/><path id="_Path_16" data-name="&lt;Path&gt;" class="cls-4" d="M185.15,192.86a7.16,7.16,0,0,0-1.63-.78,6.46,6.46,0,0,1,1.44,6.65,11.2,11.2,0,0,1-8.2,5.71,8.12,8.12,0,0,0,.67.48,7.16,7.16,0,1,0,7.72-12.06Z"/><path id="_Path_17" data-name="&lt;Path&gt;" class="cls-5" d="M185,198.73a6.46,6.46,0,0,0-1.44-6.65,7.12,7.12,0,0,0-6.76,12.36A11.2,11.2,0,0,0,185,198.73Z"/><path id="_Path_18" data-name="&lt;Path&gt;" class="cls-5" d="M182,101.68a7.28,7.28,0,0,0,3.32,8.13,7.51,7.51,0,0,0,7.72.38C190.92,105.26,187.24,101.56,182,101.68Z"/><path id="_Path_19" data-name="&lt;Path&gt;" class="cls-4" d="M195.14,108.22c2-3.08.78-7.37-2.66-9.57s-7.83-1.48-9.8,1.6a6,6,0,0,0-.66,1.43c5.22-.12,8.9,3.58,11,8.51A6,6,0,0,0,195.14,108.22Z"/><path id="_Path_20" data-name="&lt;Path&gt;" class="cls-6" d="M102.79,312.63c-.75-3.31-3.83-7.48-8.4-10.89-5.34-4-11.08-5.73-14.4-4.67C85.28,305.55,93.58,309.87,102.79,312.63Z"/><path id="_Path_21" data-name="&lt;Path&gt;" class="cls-4" d="M80,297.07a4,4,0,0,0-2,1.36c-2.37,3.18,1.14,9.81,7.84,14.82s14.06,6.49,16.44,3.31a4.71,4.71,0,0,0,.56-3.93C93.58,309.87,85.28,305.55,80,297.07Z"/><path id="_Path_22" data-name="&lt;Path&gt;" class="cls-6" d="M94.15,290.52c.29-2-1.67-5.17-5-7.64A13.17,13.17,0,0,0,82,280C84.05,286,88.63,289,94.15,290.52Z"/><path id="_Path_23" data-name="&lt;Path&gt;" class="cls-4" d="M82,280a2.94,2.94,0,0,0-2.46,1c-1.38,1.86.67,5.74,4.58,8.66s8.22,3.79,9.6,1.94a2.23,2.23,0,0,0,.4-1C88.63,289,84.05,286,82,280Z"/><path id="_Path_24" data-name="&lt;Path&gt;" class="cls-4" d="M240.57,331.19c-4.7,1.34-8,4.23-7.37,6.46s5,3,9.66,1.62,8-4.23,7.37-6.46S245.27,329.86,240.57,331.19Z"/><path id="_Path_25" data-name="&lt;Path&gt;" class="cls-4" d="M265.93,71.54a4.1,4.1,0,0,0,1.11-2c.71-3.11-2.59-6.5-7.35-7.58s-9.2.56-9.91,3.67a3.32,3.32,0,0,0-.08.89C256,64.26,262,66.76,265.93,71.54Z"/><path id="_Path_26" data-name="&lt;Path&gt;" class="cls-5" d="M249.7,66.55c0,2.84,3.12,5.72,7.43,6.7,3.62.82,7.05.06,8.8-1.71C262,66.76,256,64.26,249.7,66.55Z"/><path id="_Path_27" data-name="&lt;Path&gt;" class="cls-4" d="M42.73,165.45a4.24,4.24,0,0,0-2.75,0c-3,1.12-4,5.74-2.3,10.31s5.54,7.38,8.52,6.25a3.68,3.68,0,0,0,1-.56A29.92,29.92,0,0,1,42.73,165.45Z"/><path id="_Path_28" data-name="&lt;Path&gt;" class="cls-5" d="M48.49,171.73c-1.21-3.24-3.48-5.58-5.76-6.28a29.92,29.92,0,0,0,4.48,16C49.4,179.78,50,175.74,48.49,171.73Z"/></g></g></g></g></svg>