<svg xmlns="http://www.w3.org/2000/svg" viewBox="0 0 346.28 220.02"><defs><style>.cls-1{fill:#d0591c;}.cls-2{fill:#43bead;}.cls-3{fill:#247e73;}.cls-4{fill:#febc11;}.cls-5{fill:#faa21b;}.cls-6{fill:#e7811d;}</style></defs><title>Asset 1</title><g id="Layer_2" data-name="Layer 2"><g id="Layer_1-2" data-name="Layer 1"><g id="_Group_" data-name="&lt;Group&gt;"><path id="_Path_" data-name="&lt;Path&gt;" class="cls-1" d="M274.23,71A108.06,108.06,0,0,0,236.3,22c-2.79-2-5.66-3.86-8.62-5.58A108.37,108.37,0,0,0,64.79,107.66c-.07,3.39,0,6.81.28,10.24a111.11,111.11,0,0,0,1.53,11.87,107.89,107.89,0,0,0,20.46,46.07c.54.72,1.1,1.42,1.66,2.12A108.37,108.37,0,0,0,274.23,71Z"/><path id="_Path_2" data-name="&lt;Path&gt;" class="cls-2" d="M176,163.8c31.19-12.29,52.92-40.5,55.17-73.45,2.7-34.14-11.24-68.09-39-87A108.45,108.45,0,0,0,64.79,107.66c-.07,3.39,0,6.81.28,10.24a111.11,111.11,0,0,0,1.53,11.87,107.89,107.89,0,0,0,20.46,46.07c.54.72,1.1,1.42,1.66,2.12a51.58,51.58,0,0,0,13.94,1.3C128.49,178.19,151.69,173,176,163.8Z"/><path id="_Path_3" data-name="&lt;Path&gt;" class="cls-3" d="M274.23,71A108.06,108.06,0,0,0,236.3,22c-2.79-2-5.66-3.86-8.62-5.58A108.31,108.31,0,0,0,192.16,3.32c27.8,18.94,41.74,52.89,39,87-2.25,33-24,61.16-55.17,73.45-24.34,9.16-47.54,14.39-73.37,15.46A51.58,51.58,0,0,1,88.72,178,108.37,108.37,0,0,0,274.23,71Z"/><path id="_Path_4" data-name="&lt;Path&gt;" class="cls-4" d="M87.06,175.84c-27.51,6.77-47.33,5.92-53-4.11-6.23-11.12,6.26-31.2,31-53.83-.26-3.43-.35-6.85-.28-10.24C29.88,136.1,6.7,164.12,1.24,185.23v0c-2,7.79-1.61,14.64,1.52,20.22,11.6,20.71,57.65,18.59,115.83-1.85,26.57-9.32,55.66-22.47,85.16-39a548,548,0,0,0,77.74-52.28q5.94-4.83,11.41-9.65c-40.78,16.56-79.75,31.59-121.52,39.67C140.33,158.51,110.82,170,87.06,175.84Z"/><path id="_Path_5" data-name="&lt;Path&gt;" class="cls-5" d="M343.53,14.54c-2.74-4.87-7.37-8.47-13.62-10.88h0C309.57-4.16,272.17.76,227.68,16.39c3,1.72,5.83,3.59,8.62,5.58,32.2-9.27,55.83-9.43,62.06,1.68,5.63,10-4,27.38-24.13,47.33s-51,42.66-87.58,63.14q-7.68,4.31-15.27,8.25c41.77-8.08,80.74-23.11,121.52-39.67C333.3,67.2,354.17,33.54,343.53,14.54Z"/><path id="_Path_6" data-name="&lt;Path&gt;" class="cls-5" d="M135.44,185.58c-142.52,56-134.44,1.14-134.2-.32-2,7.79-1.61,14.64,1.52,20.22,11.6,20.71,57.65,18.59,115.83-1.85,26.57-9.32,55.66-22.47,85.16-39a548,548,0,0,0,77.74-52.28q5.94-4.83,11.41-9.65-11.22,4.56-22.28,8.92C236.51,137.78,190.48,163.94,135.44,185.58Z"/><path id="_Path_7" data-name="&lt;Path&gt;" class="cls-6" d="M343.53,14.54c-2.74-4.87-7.37-8.47-13.62-10.88,20.07,23-3.89,65.47-59.29,108q11.07-4.35,22.28-8.92C333.3,67.2,354.17,33.54,343.53,14.54Z"/><path id="_Path_8" data-name="&lt;Path&gt;" class="cls-5" d="M24.69,173.27c-9,38.24,82.58,15.67,135-15.11C99.87,190.94,17.38,200.65,24.69,173.27Z"/></g></g></g></svg>