<svg xmlns="http://www.w3.org/2000/svg" viewBox="0 0 393.67 255.11"><defs><style>.cls-1{fill:#ef5034;}.cls-1,.cls-2,.cls-3,.cls-4{fill-rule:evenodd;}.cls-2{fill:#f26f59;}.cls-3{fill:#b41f24;}.cls-4{fill:#2b2937;}</style></defs><title>Asset 6</title><g id="Layer_2" data-name="Layer 2"><g id="Layer_1-2" data-name="Layer 1"><path class="cls-1" d="M308.8,208.45c-92.19-34.39-96.76-41.63-163.12-82-5.31-3.23-9.33-4.47-14.74-7.92-11.55-7.37-49.61-29.68-54.21-35.17C82.65,80.93,84.47,67.44,95,55c4.63-5.49,4.65-2.74,6-9.9,7.58-.85,2.23,1,8.21-5.61a25.76,25.76,0,0,1,9.14-7.2l-1.83-3c8.86-.85,21.44-14,43.16-21.41C194.19-4,234.52-2.67,267.67,13.29c11.18,5.38,32.83,21.47,37.62,28.32,3.61,2.39.32-.67,3.79,3.61a50,50,0,0,1,2.86,4.22C366.13,126.14,304.57,198.58,308.8,208.45Z"/><path class="cls-2" d="M317.2,187.81c-8.18,16.69-11.64,13.07-8.4,20.64-57.67-21.51-81.06-32.4-106.73-47.43V.1c22.56-.81,45.41,3.47,65.6,13.19,11.18,5.38,32.83,21.47,37.62,28.32,3.61,2.39.32-.67,3.79,3.61a50,50,0,0,1,2.86,4.22C342.32,92.44,337.89,145.6,317.2,187.81Z"/><path class="cls-3" d="M116.58,29.26l1.83,3a25.76,25.76,0,0,0-9.14,7.2c-6,6.64-.63,4.76-8.21,5.61C79.8,41.15,65.9,29.81,41,41.14c-1,12.91,7.93,20.37,14.09,25.5,6.5,5.42,13.1,10.76,21.65,16.68,4.6,5.49,42.66,27.8,54.21,35.17,5.41,3.45,9.43,4.69,14.74,7.92,66.36,40.41,70.93,47.65,163.12,82,14.37.16,33.34,7.87,45.53-5.79,2.31-11.49-3.78-17.12-9.3-21.83-4.43-3.78-13.92-10.77-19.41-13.49-2.56-3.47,1.42-16.56,5-18.23,7.07,2.16,75.22,47.25,61.08,78.39-6.6,14.54-33.27,17.89-54.52,15.33-20.87-2.51-37.27-9.19-56.46-15.08L192.13,185c-4.94-3.24-2-1.55-6.87-3.58-17.56-7.27-59.5-34.89-76.14-46.37L74.88,111.37c-2.92-2.14.48-.2-3.77-2.5-12.27-4.38-34.38-24.09-43.74-32-9.87-8.31-30.26-28-27-50.38C5.93-12,94.22,20.21,116.58,29.26Z"/><path class="cls-1" d="M280.76,227.75c-7.15,13.21-48,25.23-67.88,26.85-29.33,2.4-56.2-3.77-78.25-17.26-21.68-13.26-34.07-26.27-46.39-48.08-16.39-29-15.67-43.74-17.13-80.39,4.25,2.3.85.36,3.77,2.5L109.12,135c16.64,11.48,58.58,39.1,76.14,46.37,4.9,2,1.93.34,6.87,3.58Z"/><path class="cls-2" d="M280.76,227.75c-7.15,13.21-48,25.23-67.88,26.85q-5.94.48-11.72.51V189.32Z"/><path class="cls-4" d="M101.06,45.06c-1.38,7.16-1.4,4.41-6,9.9-10.56,12.48-12.38,26-18.3,28.36C68.18,77.4,61.58,72.06,55.08,66.64,48.92,61.51,40,54.05,41,41.14,65.9,29.81,79.8,41.15,101.06,45.06Z"/><path class="cls-4" d="M308.8,208.45c-3.24-7.57.22-3.95,8.4-20.64,3-6,5-15.34,9.79-19.9,5.49,2.72,13.61,9.14,18,12.92,5.52,4.71,11.61,10.34,9.3,21.83C342.14,216.32,323.17,208.61,308.8,208.45Z"/></g></g></svg>