<svg xmlns="http://www.w3.org/2000/svg" viewBox="0 0 102.93 72.94"><defs><style>.cls-1{fill:#b44c14;}.cls-2{fill:#d0591c;}</style></defs><title>Asset 1</title><g id="Layer_2" data-name="Layer 2"><g id="Layer_1-2" data-name="Layer 1"><g id="_Group_" data-name="&lt;Group&gt;"><path id="_Path_" data-name="&lt;Path&gt;" class="cls-1" d="M100.31,12.46C99.66,3,94.5,2.36,87,3.34,80.58,4.19,72.42,6.2,63.9,4.75A31.5,31.5,0,0,1,58,3.17C43.41-2.37,39.78-.63,36.84,8.29c-1.2,3.64-2.28,8.47-4,14.5C27.15,43.61,20.64,34,5.41,52.06a1.13,1.13,0,0,1-.1.13C-9.71,70.11,9.69,64,31.64,64l.88,0c7.68.19,11.13,2.61,13.56,4.89,4.14,3.89,5.34,7.33,19.71-1.65C115,36.56,101.64,32,100.31,12.46Z"/><g id="_Group_2" data-name="&lt;Group&gt;"><path id="_Path_2" data-name="&lt;Path&gt;" class="cls-1" d="M40.58,33.85c2.66-8-2.52-16.72-3.74-25.56-1.2,3.64-2.28,8.47-4,14.5C27.15,43.61,20.64,34,5.41,52.06a1.13,1.13,0,0,1-.1.13C20.57,51.43,34.64,48.11,40.58,33.85Z"/><path id="_Path_3" data-name="&lt;Path&gt;" class="cls-1" d="M87,3.34C80.58,4.19,72.42,6.2,63.9,4.75c-4.7,5.68-8.55,12-10.32,19.1C66.63,19.7,77.56,12.37,87,3.34Z"/><path id="_Path_4" data-name="&lt;Path&gt;" class="cls-2" d="M87,3.34c-9.45,9-20.38,16.36-33.43,20.51,1.77-7.06,5.62-13.42,10.32-19.1A31.5,31.5,0,0,1,58,3.17C43.41-2.37,39.78-.63,36.84,8.29c1.22,8.84,6.4,17.59,3.74,25.56-5.94,14.26-20,17.58-35.27,18.34C-9.71,70.11,9.69,64,31.64,64l.88,0A40.79,40.79,0,0,0,44.58,49.85c5-9,16-11,27-12,4,0,7-6,11-8,5-3,16,1,11,6C79.14,49.53,59.5,54.56,46.08,68.92c4.14,3.89,5.34,7.33,19.71-1.65C115,36.56,101.64,32,100.31,12.46,99.66,3,94.5,2.36,87,3.34Z"/><path id="_Path_5" data-name="&lt;Path&gt;" class="cls-1" d="M82.58,29.85c-4,2-7,8-11,8-11,1-22,3-27,12A40.79,40.79,0,0,1,32.52,64c7.68.19,11.13,2.61,13.56,4.89C59.5,54.56,79.14,49.53,93.58,35.85,98.58,30.85,87.58,26.85,82.58,29.85Z"/></g></g></g></g></svg>