<svg xmlns="http://www.w3.org/2000/svg" viewBox="0 0 62.66 40.28"><defs><style>.cls-1{fill:#f78d1e;}</style></defs><title>Asset 6</title><g id="Layer_2" data-name="Layer 2"><g id="Layer_1-2" data-name="Layer 1"><path id="_Path_" data-name="&lt;Path&gt;" class="cls-1" d="M52.06,8.11C44.7,4.07,37.72,5.49,30,5.18,22.4,4.88,15.93.32,8.62,0,4.89-.15,1.39,2.63.2,6.17c-2.26,6.74,15.14,31.19,22.07,33.59,3.93,1.37,8.2-.24,12.05-1.82l11-4.54C51.52,30.86,58.05,28,61.7,22.45a4.77,4.77,0,0,0,1-2.55,5.2,5.2,0,0,0-1.07-2.7A27.37,27.37,0,0,0,52.06,8.11Z"/></g></g></svg>