<svg xmlns="http://www.w3.org/2000/svg" viewBox="0 0 82.55 73.36"><defs><style>.cls-1{fill:#c95e19;}.cls-2{fill:#e26a1f;}</style></defs><title>Asset 2</title><g id="Layer_2" data-name="Layer 2"><g id="Layer_1-2" data-name="Layer 1"><g id="_Group_" data-name="&lt;Group&gt;"><path id="_Path_" data-name="&lt;Path&gt;" class="cls-1" d="M31.09,37.72c5-3,1-17.87-8.87-25.89l-.18.56c-3,9-13.73,13.06-18.79,21.12A20.21,20.21,0,0,0,.88,39.06C11.59,41.61,21.92,42.57,31.09,37.72Z"/><path id="_Path_2" data-name="&lt;Path&gt;" class="cls-2" d="M26.09,52.72c14,11,26-7,40-11,0,7-6,11-8,17h11c1,0,1,2,1,3A13.91,13.91,0,0,1,67.55,65c12.87-9.44,22.88-24.77,6.35-37.4-2.22-1.69-4.92-2.76-6.84-4.79-3.87-4.08-3.43-10.64-6.29-15.48S51.66,0,45.85,0,34.46,2,29,4a10.54,10.54,0,0,0-4.7,2.7c-1.2,1.42-1.55,3.33-2.09,5.13,9.9,8,13.85,22.9,8.87,25.89-9.17,4.85-19.5,3.89-30.21,1.34-2,7.36-.43,16,2.67,22.63.34.72.7,1.37,1.06,2C13.46,63.42,22.33,61.76,26.09,52.72Z"/><path id="_Path_3" data-name="&lt;Path&gt;" class="cls-2" d="M54.33,72.27a50.66,50.66,0,0,0,7.58-3.58c-3.37,1.55-7.09,2.63-10.47,4.32A15.92,15.92,0,0,0,54.33,72.27Z"/><path id="_Path_4" data-name="&lt;Path&gt;" class="cls-1" d="M70.09,61.72c0-1,0-3-1-3h-11c2-6,8-10,8-17-14,4-26,22-40,11-3.76,9-12.63,10.7-21.48,11,4.58,8,11,8.81,21.52,9.25q9.54.41,19.09.42A39,39,0,0,0,51.44,73c3.38-1.69,7.1-2.77,10.47-4.32A63,63,0,0,0,67.55,65,13.91,13.91,0,0,0,70.09,61.72Z"/></g></g></g></svg>