<svg xmlns="http://www.w3.org/2000/svg" viewBox="0 0 72.82 49.6"><defs><style>.cls-1{fill:#f78d1e;}.cls-2{fill:#f26522;}</style></defs><title>Asset 5</title><g id="Layer_2" data-name="Layer 2"><g id="Layer_1-2" data-name="Layer 1"><g id="_Group_" data-name="&lt;Group&gt;"><path id="_Path_" data-name="&lt;Path&gt;" class="cls-1" d="M72.65,22.21C71.16,14,39.36-1.36,30.85.1,26,.92,22.54,5,19.48,8.8q-4.41,5.47-8.81,10.94C5.76,25.85.63,32.48,0,40.3A5.48,5.48,0,0,0,.5,43.46a6.06,6.06,0,0,0,2.63,2.18,34,34,0,0,0,11.58,3.75c-1.4-4.1-3.45-8.1-1.35-11.26,4-7,13,0,20-4,1-1-1-3-1-4-5-1-16-7-10-8,9-2,22-5,26,0A37.06,37.06,0,0,0,68.23,32.9,10.65,10.65,0,0,0,72.65,22.21Z"/><path id="_Path_2" data-name="&lt;Path&gt;" class="cls-2" d="M22.36,22.13c-6,1,5,7,10,8,0,1,2,3,1,4-7,4-16-3-20,4-2.1,3.16,0,7.16,1.35,11.26a25.76,25.76,0,0,0,3.4.21c9.87,0,16.26-5.42,24.44-9.51,8-4,17.21-2.94,24.92-6.76.26-.13.51-.28.76-.43A37.06,37.06,0,0,1,48.36,22.13C44.36,17.13,31.36,20.13,22.36,22.13Z"/></g></g></g></svg>