<svg xmlns="http://www.w3.org/2000/svg" viewBox="0 0 163.82 328.48"><defs><style>.cls-1{fill:#ed1c24;}.cls-2{fill:#f7941d;}.cls-3{fill:#fbb040;}.cls-4{fill:#f9ed32;}.cls-5{fill:#468fc6;}.cls-6{fill:#f3f3f3;}.cls-7{fill:#6ba8db;}.cls-8{fill:#dcdbdb;}.cls-9{fill:#38739f;}.cls-10{fill:#c92027;}.cls-11{fill:#25296b;}.cls-12{fill:#403b89;}.cls-13{fill:#4c4b99;}.cls-14{fill:#64c0ed;}.cls-15{fill:#92d9f7;}</style></defs><title>Asset 1</title><g id="Layer_2" data-name="Layer 2"><g id="Layer_1-2" data-name="Layer 1"><path class="cls-1" d="M81.92,246.61c-54.07,11.2,0,81.87,0,81.87S136,257.81,81.92,246.61Z"/><path class="cls-2" d="M81.92,246.61c-44.25,9.16,0,67,0,67S126.17,255.77,81.92,246.61Z"/><path class="cls-3" d="M81.92,246.61c-33.79,7,0,51.17,0,51.17S115.72,253.61,81.92,246.61Z"/><path class="cls-4" d="M81.92,246.61c-25.25,5.23,0,38.23,0,38.23S107.17,251.84,81.92,246.61Z"/><polygon class="cls-5" points="103.06 170.38 151.82 199.18 151.82 244.66 96.26 223.38 103.06 170.38"/><polygon class="cls-5" points="60.76 170.38 12 199.18 12 244.66 67.55 223.38 60.76 170.38"/><path class="cls-6" d="M81.93,0V0h0V0c-1.4,1.37-79.7,78.62-19.62,230.6h39.27C161.63,78.64,83.34,1.39,81.93,0Z"/><polygon class="cls-5" points="81.93 237.67 81.91 237.67 58.29 237.67 65.44 251.65 81.91 251.65 81.93 251.65 98.4 251.65 105.55 237.67 81.93 237.67"/><polygon class="cls-7" points="101.56 230.62 81.93 230.62 81.91 230.62 62.28 230.62 58.29 237.67 81.91 237.67 81.93 237.67 105.55 237.67 101.56 230.62"/><path class="cls-8" d="M90.85,230.62h10.71C161.63,78.64,83.34,1.39,81.93,0V0h0V0S149.47,94.07,90.85,230.62Z"/><polygon class="cls-9" points="92.54 251.65 98.4 251.65 105.55 237.67 93.44 237.67 92.54 251.65"/><polygon class="cls-5" points="90.86 230.62 93.44 237.67 105.55 237.67 101.56 230.62 90.86 230.62"/><path class="cls-7" d="M81.93,0h0V0c-.73.72-22.48,22.17-34.49,64.19a109.13,109.13,0,0,0,34.51,5.5,109.24,109.24,0,0,0,34.49-5.49C104.41,22.19,82.67.74,81.93,0Z"/><polygon class="cls-10" points="81.93 0 81.92 0.01 81.93 0.02 81.93 0"/><path class="cls-5" d="M81.93,0s20,31.16,27,66.39c2.56-.64,5.08-1.38,7.53-2.19C104.41,22.19,82.67.74,81.93,0Z"/><ellipse class="cls-11" cx="81.91" cy="115.31" rx="24.96" ry="39.76"/><ellipse class="cls-12" cx="81.91" cy="115.31" rx="22.7" ry="36.17"/><path class="cls-13" d="M63.51,108.82a1.64,1.64,0,0,1-.8-.22c-1.25-.7-1.9-2.88-1.46-4.87,3.08-14,11.38-23.32,20.66-23.32,5.43,0,10.64,3.2,14.67,9a5.54,5.54,0,0,1,.18,5.4c-.89,1.57-2.41,1.7-3.4.28-3.14-4.52-7.21-7-11.45-7-7.25,0-13.73,7.31-16.13,18.19C65.43,107.84,64.5,108.82,63.51,108.82Z"/><ellipse class="cls-11" cx="81.91" cy="115.31" rx="16.23" ry="25.87"/><ellipse class="cls-14" cx="81.91" cy="115.31" rx="14.35" ry="22.87"/><ellipse class="cls-15" cx="78.92" cy="105.72" rx="7.51" ry="11.96"/><path class="cls-7" d="M151.82,155.08h0c-.39.69-22.61,39.32-5.57,115.33h11.15C174.44,194.4,152.22,155.77,151.82,155.08Z"/><polygon class="cls-10" points="151.81 155.07 151.81 155.09 151.81 155.07 151.81 155.07"/><path class="cls-5" d="M151.82,155.08h0s17.65,54.65,1.77,115.33h3.81C174.44,194.4,152.22,155.77,151.82,155.08Z"/><path class="cls-7" d="M12,155.08h0c-.4.69-22.62,39.32-5.57,115.33H17.57C34.62,194.4,12.4,155.77,12,155.08Z"/><polygon class="cls-10" points="12 155.07 12 155.09 12 155.07 12 155.07"/><path class="cls-5" d="M12,155.08h0s17.65,54.65,1.76,115.33h3.81C34.62,194.4,12.4,155.77,12,155.08Z"/><path class="cls-7" d="M81.91,167.69h0c-.42.72-23.68,41.16-5.83,120.73H87.74C105.59,208.85,82.33,168.41,81.91,167.69Z"/><polygon class="cls-10" points="81.91 167.68 81.91 167.69 81.91 167.68 81.91 167.68"/><path class="cls-5" d="M81.91,167.69h0s18.48,57.21,1.85,120.73h4C105.59,208.85,82.33,168.41,81.91,167.69Z"/></g></g></svg>