<svg xmlns="http://www.w3.org/2000/svg" viewBox="0 0 96.26 92.03"><defs><style>.cls-1{fill:#fff100;}.cls-1,.cls-2{fill-rule:evenodd;}.cls-2{fill:#fbf28b;}</style></defs><title>Asset 1</title><g id="Layer_2" data-name="Layer 2"><g id="Layer_1-2" data-name="Layer 1"><path class="cls-1" d="M26.87,0C23.44,40.52,24,25.85,0,52.34,35.48,64.14,33.28,65.12,45.11,92c9.69-7.56,11.78-16.09,21-22.7C79.69,59.69,80.91,66,96.26,58.4,72.77,34.68,80.78,40.92,84.1,5.38,56.94,12.61,62.17,19.47,26.87,0Z"/><path class="cls-2" d="M26.87,0C23.44,40.52,24,25.85,0,52.34c15.42,5.13,23.72,8.21,29.15,12.27L83,5.67C57.08,12.79,61.69,19.21,26.87,0Z"/></g></g></svg>