<svg xmlns="http://www.w3.org/2000/svg" viewBox="0 0 375.54 361.98"><defs><style>.cls-1{fill:#fbc210;}.cls-1,.cls-2,.cls-3,.cls-4{fill-rule:evenodd;}.cls-2{fill:#ebb71e;}.cls-3{fill:#f8da74;}.cls-4{fill:#fae596;}</style></defs><title>Asset 4</title><g id="Layer_2" data-name="Layer 2"><g id="Layer_1-2" data-name="Layer 1"><path class="cls-1" d="M168.76,72.84c-4.84-1.45-16.61-11-20.76-14.34-4.56-3.67-15.34-13.34-21-15.35l-.59,63C110.47,108,81.8,99.14,64,99.35L86.4,140.4,0,176.35c5.09,7.05,75.84,43.75,79.23,49.32-6.53,11.53-20.43,23-26.27,35.9A7.8,7.8,0,0,0,56,262.63c5.38,1.08,12.6-.35,17.08.58,5.66,1.18,1.27,2.05,6,1.65,2.94-.24,16.39-3.87,27.94-1.07,1.76,9.95-8.44,59.12-8.57,76,9.35-3.38,24.5-13.23,33.66-18.48s24.93-15.35,34.29-18.46l20.65,50.39,26.21-42.69c8.57,2.54,57.3,46.09,69.27,51.45l1.3-85.63,49.71,6.23c-2.91-13.61-22.14-35.88-26.21-50,8.89-3.46,65.08-26,68.16-29.06-4.51-4.39-20.15-12.32-26.7-16.28-8.8-5.32-18.9-10.61-27.23-16.45,2.37-7.05,37.25-48.61,45.71-61.46-9.61-5.12-79.91,4-81-4.29l2.82-23.65c.9-7.26,3.66-20.49,2.88-28l-45.34,25c-.43-.58-.82-1.39-.87-1.18s-.52-.66-.66-.87L229.49,39.87C225.2,29.52,217.43,7.72,212.64,0,208.27,3.58,177.29,60.63,168.76,72.84Z"/><path class="cls-2" d="M168.76,72.84c-4.84-1.45-16.61-11-20.76-14.34-4.56-3.67-15.34-13.34-21-15.35l-.59,63C110.47,108,81.8,99.14,64,99.35L86.4,140.4,0,176.35c5.09,7.05,75.84,43.75,79.23,49.32-6.53,11.53-20.43,23-26.27,35.9A7.8,7.8,0,0,0,56,262.63c5.38,1.08,12.61-.35,17.08.58,5.66,1.18,1.27,2.05,6,1.65,2.93-.24,16.39-3.87,27.94-1.07,1.76,9.95-8.44,59.12-8.57,76,9.36-3.37,24.5-13.22,33.66-18.47s24.93-15.35,34.29-18.46l20.65,50.39,23.13-37.67V3.08C201.61,15.81,176.34,62,168.76,72.84Z"/><path class="cls-3" d="M195.16,72.78c-28.88,2.5-55.53,19.78-70.25,37.86-17,20.89-28.33,47.89-24.49,81.74,3.22,28.44,17.44,51.24,37.45,69.48,19.34,17.62,47.9,27.14,83.6,24.89,8-.5,22.46-4.75,30.52-8.64,10.48-5.06,15.57-8.43,24.74-15.68,3.13-2.49,3.75-2.71,6.68-6.46,2.44-3.12,4.18-4.19,6.9-7.4C350.67,177,296.41,64,195.16,72.78Z"/><path class="cls-4" d="M208.87,287.06c4.09.06,8.29,0,12.6-.31,8-.5,22.46-4.75,30.52-8.64,10.48-5.06,15.57-8.43,24.74-15.68,3.13-2.49,3.75-2.71,6.68-6.46,2.44-3.12,4.18-4.19,6.9-7.4,57.58-68.23,10.86-174.22-81.44-176.24Z"/></g></g></svg>