<svg xmlns="http://www.w3.org/2000/svg" viewBox="0 0 247.9 173.15"><defs><style>.cls-1{fill:#39a497;}.cls-2{fill:#046970;}.cls-3{fill:#ffc40e;}.cls-4{fill:#e26a20;}.cls-5{fill:#f78c1f;}.cls-6{fill:#97daf8;}.cls-7{fill:#8ec7e1;}.cls-8{fill:#c7e9fb;}.cls-9{fill:#fcb417;}.cls-10{fill:#42bfad;}</style></defs><title>Asset 4</title><g id="Layer_2" data-name="Layer 2"><g id="Layer_1-2" data-name="Layer 1"><path class="cls-1" d="M86.27,154l17.27,15.82a57.27,57.27,0,0,0,16.4,3.19c2.24-7.29,4-14.81,5.82-22.05Z"/><path class="cls-2" d="M125.76,151c-1.84,7.24-3.58,14.76-5.82,22.05,2.17.14,4.52.2,7,.12,2.95-7.24,4.51-15.3,6.13-22.73Z"/><path class="cls-1" d="M140.87,149.79l-7.77.6c-1.62,7.43-3.18,15.49-6.13,22.73.65,0,1.3,0,2-.08A46,46,0,0,0,140.87,149.79Z"/><path class="cls-2" d="M156.4,148.59l-15.53,1.2A46,46,0,0,1,128.94,173a76.85,76.85,0,0,0,12.72-1.79Z"/><path class="cls-3" d="M.05,121.53v15.29s51,34.52,144.72,18.88S247.9,128.19,247.9,128.19l-.08-17.08Z"/><path class="cls-4" d="M227.34,98.52s-39-12.45-79.68-18.78a206.2,206.2,0,0,1,28.25,10.15c8.63,3.23,28.05,15.1,19.42,19.42-52.62,26.31-112.43,28-171.42,24,28.36,9.82,81.34,20,155.67,5.45C297.11,115.78,227.34,98.52,227.34,98.52Z"/><path class="cls-5" d="M195.33,109.31C204,105,184.54,93.12,175.91,89.89a206.2,206.2,0,0,0-28.25-10.15c-19.6-3-39.61-4.67-55.87-2.8,0,0-89.58,43.15-91.74,44.59-.79.53,7.38,6.11,23.86,11.81C82.9,137.29,142.71,135.62,195.33,109.31Z"/><path class="cls-6" d="M142.47,85.57c1.07-25.89,6.47-52.87-4.32-75.52C136,5.74,130,1.46,123.74,0a43,43,0,0,0-11.47,1.41C71,11.74,75,62.76,78.26,83,99.66,83.87,121.06,94,142.47,85.57Z"/><path class="cls-7" d="M123.74,0c6.29,1.45,12.26,5.73,14.41,10,10.79,22.65,5.39,49.63,4.32,75.52C121.06,94,99.66,83.87,78.26,83c.83,5.15,1.63,8.31,1.63,8.31l3.72,2.88c15.24,13.67,73.24,7.91,74.83-9.35C159.9,69,163.41.84,123.74,0Z"/><path class="cls-2" d="M77.3,76.14s-6.12,2.44-6,6.55-.72,9.71,0,10.43,23.73,21.22,61.5,11.51S165,82.8,165,82.8s2.23-11.21-5.85-11.59c0,0,.43,20.22-41.05,18C118.13,89.22,78.17,87.58,77.3,76.14Z"/><path class="cls-8" d="M104.7,9.51s-20.49,1.89-23.19,37-.81,31,0,29.68S84.75,38.37,88,37.29,124.12,5.46,104.7,9.51Z"/><path class="cls-8" d="M119.09,5.37s-8.09,1.26-3.42,4.68S129.88,4.29,119.09,5.37Z"/><path class="cls-9" d="M59.3,102.31s-40.64,12.23-37,16.91S70.42,102.94,59.3,102.31Z"/><path class="cls-10" d="M215,89.72c-.25-.17-.5-.34-.78-.5-5.39-3.09-11.6,4.44-11.6,4.44a9.85,9.85,0,0,0,.82,1.21C208.41,94.9,213,93.5,215,89.72Z"/><path class="cls-1" d="M215,89.72c-2,3.78-6.58,5.18-11.56,5.15,5,6.48,15.64,3.11,15.64,3.11A9.59,9.59,0,0,0,215,89.72Z"/><path class="cls-1" d="M169.71,111.11h-.62c1.16,1.6,1.4,3.45-.19,5a8.74,8.74,0,0,1-5.26,3,13.16,13.16,0,0,0,8.28.14C178.21,117.14,179.42,111.46,169.71,111.11Z"/><path class="cls-10" d="M168.9,116.14c1.59-1.59,1.35-3.44.19-5-9.1-.1-9.87,5-9.87,5-.26.67,1.64,2.18,4.42,3.1A8.74,8.74,0,0,0,168.9,116.14Z"/><path class="cls-1" d="M90.68,112.9s-1.07,0-2.64.13c3.07,1.15,2.65,6.69-.05,8.5C95.2,119.86,100.89,115.14,90.68,112.9Z"/><path class="cls-10" d="M88,113c-5.29.35-16.32,1.72-11.71,6.87,2.27,2.53,7.25,2.65,11.66,1.63C90.69,119.72,91.11,114.18,88,113Z"/><path class="cls-10" d="M42.6,101a30,30,0,0,0-4.79,1.29c-5.84,4,.24,4.25,5.15,3a8.23,8.23,0,0,0,.79-1.09C44.41,103,43.45,102,42.6,101Z"/><path class="cls-1" d="M47.79,102.31c-.5-1.63-2.88-1.67-5.19-1.29.85,1,1.81,1.93,1.15,3.25a8.23,8.23,0,0,1-.79,1.09C45.76,104.69,48.17,103.53,47.79,102.31Z"/></g></g></svg>